<mxfile host="app.diagrams.net" modified="2022-05-13T08:06:42.216Z" agent="5.0 (Macintosh; Intel Mac OS X 10_15_7) AppleWebKit/537.36 (KHTML, like Gecko) Chrome/101.0.4951.64 Safari/537.36" etag="ScwS7qN6cC55Nd1TVM1n" version="18.0.3" type="github">
  <diagram id="C5RBs43oDa-KdzZeNtuy" name="Page-1">
    <mxGraphModel dx="2108" dy="1298" grid="1" gridSize="10" guides="1" tooltips="1" connect="1" arrows="0" fold="1" page="1" pageScale="1" pageWidth="3300" pageHeight="4681" math="0" shadow="0">
      <root>
        <mxCell id="WIyWlLk6GJQsqaUBKTNV-0" />
        <mxCell id="WIyWlLk6GJQsqaUBKTNV-1" parent="WIyWlLk6GJQsqaUBKTNV-0" />
        <mxCell id="zkfFHV4jXpPFQw0GAbJ--0" value="SFTransactionVC" style="swimlane;fontStyle=2;align=center;verticalAlign=top;childLayout=stackLayout;horizontal=1;startSize=26;horizontalStack=0;resizeParent=1;resizeLast=0;collapsible=1;marginBottom=0;rounded=0;shadow=0;strokeWidth=1;" parent="WIyWlLk6GJQsqaUBKTNV-1" vertex="1">
          <mxGeometry x="1160" y="870" width="240" height="483" as="geometry">
            <mxRectangle x="220" y="120" width="160" height="26" as="alternateBounds" />
          </mxGeometry>
        </mxCell>
        <mxCell id="qQBRJ47vKQDhWzbW-TcR-91" value="                 子类调用" style="text;align=left;verticalAlign=top;spacingLeft=4;spacingRight=4;overflow=hidden;rotatable=0;points=[[0,0.5],[1,0.5]];portConstraint=eastwest;rounded=0;shadow=0;html=0;" vertex="1" parent="zkfFHV4jXpPFQw0GAbJ--0">
          <mxGeometry y="26" width="240" height="26" as="geometry" />
        </mxCell>
        <mxCell id="qQBRJ47vKQDhWzbW-TcR-72" value="func showOpenAccountAlert()" style="text;align=left;verticalAlign=top;spacingLeft=4;spacingRight=4;overflow=hidden;rotatable=0;points=[[0,0.5],[1,0.5]];portConstraint=eastwest;rounded=0;shadow=0;html=0;" vertex="1" parent="zkfFHV4jXpPFQw0GAbJ--0">
          <mxGeometry y="52" width="240" height="26" as="geometry" />
        </mxCell>
        <mxCell id="qQBRJ47vKQDhWzbW-TcR-71" value="func processAccount()&#xa;&#xa;&#xa;" style="text;align=left;verticalAlign=top;spacingLeft=4;spacingRight=4;overflow=hidden;rotatable=0;points=[[0,0.5],[1,0.5]];portConstraint=eastwest;rounded=0;shadow=0;html=0;" vertex="1" parent="zkfFHV4jXpPFQw0GAbJ--0">
          <mxGeometry y="78" width="240" height="26" as="geometry" />
        </mxCell>
        <mxCell id="qQBRJ47vKQDhWzbW-TcR-70" value="func handleRiskAlert()" style="text;align=left;verticalAlign=top;spacingLeft=4;spacingRight=4;overflow=hidden;rotatable=0;points=[[0,0.5],[1,0.5]];portConstraint=eastwest;rounded=0;shadow=0;html=0;" vertex="1" parent="zkfFHV4jXpPFQw0GAbJ--0">
          <mxGeometry y="104" width="240" height="26" as="geometry" />
        </mxCell>
        <mxCell id="qQBRJ47vKQDhWzbW-TcR-74" value="func handleRiskAlert()" style="text;align=left;verticalAlign=top;spacingLeft=4;spacingRight=4;overflow=hidden;rotatable=0;points=[[0,0.5],[1,0.5]];portConstraint=eastwest;rounded=0;shadow=0;html=0;" vertex="1" parent="zkfFHV4jXpPFQw0GAbJ--0">
          <mxGeometry y="130" width="240" height="26" as="geometry" />
        </mxCell>
        <mxCell id="qQBRJ47vKQDhWzbW-TcR-75" value="func showAutoInvestAlert()" style="text;align=left;verticalAlign=top;spacingLeft=4;spacingRight=4;overflow=hidden;rotatable=0;points=[[0,0.5],[1,0.5]];portConstraint=eastwest;rounded=0;shadow=0;html=0;" vertex="1" parent="zkfFHV4jXpPFQw0GAbJ--0">
          <mxGeometry y="156" width="240" height="26" as="geometry" />
        </mxCell>
        <mxCell id="qQBRJ47vKQDhWzbW-TcR-76" value="func continueProcess()" style="text;align=left;verticalAlign=top;spacingLeft=4;spacingRight=4;overflow=hidden;rotatable=0;points=[[0,0.5],[1,0.5]];portConstraint=eastwest;rounded=0;shadow=0;html=0;" vertex="1" parent="zkfFHV4jXpPFQw0GAbJ--0">
          <mxGeometry y="182" width="240" height="26" as="geometry" />
        </mxCell>
        <mxCell id="qQBRJ47vKQDhWzbW-TcR-77" value="func configureTransactionInfoHandler()" style="text;align=left;verticalAlign=top;spacingLeft=4;spacingRight=4;overflow=hidden;rotatable=0;points=[[0,0.5],[1,0.5]];portConstraint=eastwest;rounded=0;shadow=0;html=0;" vertex="1" parent="zkfFHV4jXpPFQw0GAbJ--0">
          <mxGeometry y="208" width="240" height="26" as="geometry" />
        </mxCell>
        <mxCell id="qQBRJ47vKQDhWzbW-TcR-78" value="func configureTransactionInputHandler()" style="text;align=left;verticalAlign=top;spacingLeft=4;spacingRight=4;overflow=hidden;rotatable=0;points=[[0,0.5],[1,0.5]];portConstraint=eastwest;rounded=0;shadow=0;html=0;" vertex="1" parent="zkfFHV4jXpPFQw0GAbJ--0">
          <mxGeometry y="234" width="240" height="26" as="geometry" />
        </mxCell>
        <mxCell id="zkfFHV4jXpPFQw0GAbJ--4" value="" style="line;html=1;strokeWidth=1;align=left;verticalAlign=middle;spacingTop=-1;spacingLeft=3;spacingRight=3;rotatable=0;labelPosition=right;points=[];portConstraint=eastwest;" parent="zkfFHV4jXpPFQw0GAbJ--0" vertex="1">
          <mxGeometry y="260" width="240" height="8" as="geometry" />
        </mxCell>
        <mxCell id="qQBRJ47vKQDhWzbW-TcR-87" value="                       子类重写" style="text;align=left;verticalAlign=top;spacingLeft=4;spacingRight=4;overflow=hidden;rotatable=0;points=[[0,0.5],[1,0.5]];portConstraint=eastwest;" vertex="1" parent="zkfFHV4jXpPFQw0GAbJ--0">
          <mxGeometry y="268" width="240" height="22" as="geometry" />
        </mxCell>
        <mxCell id="qQBRJ47vKQDhWzbW-TcR-63" value="func confrimAutoInvestAlert() " style="text;align=left;verticalAlign=top;spacingLeft=4;spacingRight=4;overflow=hidden;rotatable=0;points=[[0,0.5],[1,0.5]];portConstraint=eastwest;" vertex="1" parent="zkfFHV4jXpPFQw0GAbJ--0">
          <mxGeometry y="290" width="240" height="22" as="geometry" />
        </mxCell>
        <mxCell id="zkfFHV4jXpPFQw0GAbJ--3" value="func cancelTransaction()" style="text;align=left;verticalAlign=top;spacingLeft=4;spacingRight=4;overflow=hidden;rotatable=0;points=[[0,0.5],[1,0.5]];portConstraint=eastwest;rounded=0;shadow=0;html=0;" parent="zkfFHV4jXpPFQw0GAbJ--0" vertex="1">
          <mxGeometry y="312" width="240" height="26" as="geometry" />
        </mxCell>
        <mxCell id="zkfFHV4jXpPFQw0GAbJ--1" value="func transactionStart() " style="text;align=left;verticalAlign=top;spacingLeft=4;spacingRight=4;overflow=hidden;rotatable=0;points=[[0,0.5],[1,0.5]];portConstraint=eastwest;" parent="zkfFHV4jXpPFQw0GAbJ--0" vertex="1">
          <mxGeometry y="338" width="240" height="26" as="geometry" />
        </mxCell>
        <mxCell id="zkfFHV4jXpPFQw0GAbJ--5" value="func checkToTrade()" style="text;align=left;verticalAlign=top;spacingLeft=4;spacingRight=4;overflow=hidden;rotatable=0;points=[[0,0.5],[1,0.5]];portConstraint=eastwest;" parent="zkfFHV4jXpPFQw0GAbJ--0" vertex="1">
          <mxGeometry y="364" width="240" height="26" as="geometry" />
        </mxCell>
        <mxCell id="qQBRJ47vKQDhWzbW-TcR-73" value="func confrimAutoInvestAlert()" style="text;align=left;verticalAlign=top;spacingLeft=4;spacingRight=4;overflow=hidden;rotatable=0;points=[[0,0.5],[1,0.5]];portConstraint=eastwest;rounded=0;shadow=0;html=0;" vertex="1" parent="zkfFHV4jXpPFQw0GAbJ--0">
          <mxGeometry y="390" width="240" height="26" as="geometry" />
        </mxCell>
        <mxCell id="zkfFHV4jXpPFQw0GAbJ--2" value="func updateTransactionInfo()" style="text;align=left;verticalAlign=top;spacingLeft=4;spacingRight=4;overflow=hidden;rotatable=0;points=[[0,0.5],[1,0.5]];portConstraint=eastwest;rounded=0;shadow=0;html=0;" parent="zkfFHV4jXpPFQw0GAbJ--0" vertex="1">
          <mxGeometry y="416" width="240" height="26" as="geometry" />
        </mxCell>
        <mxCell id="qQBRJ47vKQDhWzbW-TcR-161" value="SFAssetApplicationVC" style="swimlane;fontStyle=1;align=center;verticalAlign=top;childLayout=stackLayout;horizontal=1;startSize=26;horizontalStack=0;resizeParent=1;resizeParentMax=0;resizeLast=0;collapsible=1;marginBottom=0;rounded=1;shadow=1;glass=1;sketch=1;fontFamily=Helvetica;fontSize=12;fontColor=default;strokeColor=default;strokeWidth=1;fillColor=default;points=[[0,0,0,0,0],[0,0.23,0,0,0],[0,0.5,0,0,0],[0,0.77,0,0,0],[0,1,0,0,0],[0.25,0,0,0,0],[0.25,1,0,0,0],[0.5,0,0,0,0],[0.5,1,0,0,0],[0.75,0,0,0,0],[0.75,1,0,0,0],[1,0,0,0,0],[1,0.27,0,0,0],[1,0.5,0,0,0],[1,0.77,0,0,0],[1,1,0,0,0]];" vertex="1" parent="WIyWlLk6GJQsqaUBKTNV-1">
          <mxGeometry x="260" y="1020" width="190" height="86" as="geometry">
            <mxRectangle x="310" y="1020" width="160" height="26" as="alternateBounds" />
          </mxGeometry>
        </mxCell>
        <mxCell id="qQBRJ47vKQDhWzbW-TcR-162" value="+ field: type" style="text;strokeColor=none;fillColor=none;align=left;verticalAlign=top;spacingLeft=4;spacingRight=4;overflow=hidden;rotatable=0;points=[[0,0.5],[1,0.5]];portConstraint=eastwest;rounded=1;shadow=1;glass=1;sketch=1;fontFamily=Helvetica;fontSize=12;fontColor=default;startSize=26;" vertex="1" parent="qQBRJ47vKQDhWzbW-TcR-161">
          <mxGeometry y="26" width="190" height="26" as="geometry" />
        </mxCell>
        <mxCell id="qQBRJ47vKQDhWzbW-TcR-163" value="" style="line;strokeWidth=1;fillColor=none;align=left;verticalAlign=middle;spacingTop=-1;spacingLeft=3;spacingRight=3;rotatable=0;labelPosition=right;points=[];portConstraint=eastwest;rounded=1;shadow=1;glass=1;sketch=1;fontFamily=Helvetica;fontSize=12;fontColor=default;startSize=26;" vertex="1" parent="qQBRJ47vKQDhWzbW-TcR-161">
          <mxGeometry y="52" width="190" height="8" as="geometry" />
        </mxCell>
        <mxCell id="qQBRJ47vKQDhWzbW-TcR-164" value="+ method(type): type" style="text;strokeColor=none;fillColor=none;align=left;verticalAlign=top;spacingLeft=4;spacingRight=4;overflow=hidden;rotatable=0;points=[[0,0.5],[1,0.5]];portConstraint=eastwest;rounded=1;shadow=1;glass=1;sketch=1;fontFamily=Helvetica;fontSize=12;fontColor=default;startSize=26;" vertex="1" parent="qQBRJ47vKQDhWzbW-TcR-161">
          <mxGeometry y="60" width="190" height="26" as="geometry" />
        </mxCell>
        <mxCell id="qQBRJ47vKQDhWzbW-TcR-166" value="SFCurrencyConversionOptionsVC" style="swimlane;fontStyle=1;align=center;verticalAlign=top;childLayout=stackLayout;horizontal=1;startSize=26;horizontalStack=0;resizeParent=1;resizeParentMax=0;resizeLast=0;collapsible=1;marginBottom=0;rounded=1;shadow=1;glass=1;sketch=1;fontFamily=Helvetica;fontSize=12;fontColor=default;strokeColor=default;strokeWidth=1;fillColor=default;" vertex="1" parent="WIyWlLk6GJQsqaUBKTNV-1">
          <mxGeometry x="270" y="1400" width="240" height="86" as="geometry" />
        </mxCell>
        <mxCell id="qQBRJ47vKQDhWzbW-TcR-167" value="+ field: type" style="text;strokeColor=none;fillColor=none;align=left;verticalAlign=top;spacingLeft=4;spacingRight=4;overflow=hidden;rotatable=0;points=[[0,0.5],[1,0.5]];portConstraint=eastwest;rounded=1;shadow=1;glass=1;sketch=1;fontFamily=Helvetica;fontSize=12;fontColor=default;startSize=26;" vertex="1" parent="qQBRJ47vKQDhWzbW-TcR-166">
          <mxGeometry y="26" width="240" height="26" as="geometry" />
        </mxCell>
        <mxCell id="qQBRJ47vKQDhWzbW-TcR-168" value="" style="line;strokeWidth=1;fillColor=none;align=left;verticalAlign=middle;spacingTop=-1;spacingLeft=3;spacingRight=3;rotatable=0;labelPosition=right;points=[];portConstraint=eastwest;rounded=1;shadow=1;glass=1;sketch=1;fontFamily=Helvetica;fontSize=12;fontColor=default;startSize=26;" vertex="1" parent="qQBRJ47vKQDhWzbW-TcR-166">
          <mxGeometry y="52" width="240" height="8" as="geometry" />
        </mxCell>
        <mxCell id="qQBRJ47vKQDhWzbW-TcR-169" value="+ method(type): type" style="text;strokeColor=none;fillColor=none;align=left;verticalAlign=top;spacingLeft=4;spacingRight=4;overflow=hidden;rotatable=0;points=[[0,0.5],[1,0.5]];portConstraint=eastwest;rounded=1;shadow=1;glass=1;sketch=1;fontFamily=Helvetica;fontSize=12;fontColor=default;startSize=26;" vertex="1" parent="qQBRJ47vKQDhWzbW-TcR-166">
          <mxGeometry y="60" width="240" height="26" as="geometry" />
        </mxCell>
        <mxCell id="qQBRJ47vKQDhWzbW-TcR-367" style="edgeStyle=orthogonalEdgeStyle;rounded=0;orthogonalLoop=1;jettySize=auto;html=1;exitX=0.5;exitY=0;exitDx=0;exitDy=0;fontFamily=Helvetica;fontSize=12;fontColor=default;startSize=26;" edge="1" parent="WIyWlLk6GJQsqaUBKTNV-1" source="qQBRJ47vKQDhWzbW-TcR-170">
          <mxGeometry relative="1" as="geometry">
            <mxPoint x="1270" y="1360" as="targetPoint" />
          </mxGeometry>
        </mxCell>
        <mxCell id="qQBRJ47vKQDhWzbW-TcR-170" value="HoldingTradeVC" style="swimlane;fontStyle=1;align=center;verticalAlign=top;childLayout=stackLayout;horizontal=1;startSize=26;horizontalStack=0;resizeParent=1;resizeParentMax=0;resizeLast=0;collapsible=1;marginBottom=0;rounded=1;shadow=1;glass=1;sketch=1;fontFamily=Helvetica;fontSize=12;fontColor=default;strokeColor=default;strokeWidth=1;fillColor=default;" vertex="1" parent="WIyWlLk6GJQsqaUBKTNV-1">
          <mxGeometry x="1060" y="1750" width="160" height="86" as="geometry" />
        </mxCell>
        <mxCell id="qQBRJ47vKQDhWzbW-TcR-171" value="+ field: type" style="text;strokeColor=none;fillColor=none;align=left;verticalAlign=top;spacingLeft=4;spacingRight=4;overflow=hidden;rotatable=0;points=[[0,0.5],[1,0.5]];portConstraint=eastwest;rounded=1;shadow=1;glass=1;sketch=1;fontFamily=Helvetica;fontSize=12;fontColor=default;startSize=26;" vertex="1" parent="qQBRJ47vKQDhWzbW-TcR-170">
          <mxGeometry y="26" width="160" height="26" as="geometry" />
        </mxCell>
        <mxCell id="qQBRJ47vKQDhWzbW-TcR-172" value="" style="line;strokeWidth=1;fillColor=none;align=left;verticalAlign=middle;spacingTop=-1;spacingLeft=3;spacingRight=3;rotatable=0;labelPosition=right;points=[];portConstraint=eastwest;rounded=1;shadow=1;glass=1;sketch=1;fontFamily=Helvetica;fontSize=12;fontColor=default;startSize=26;" vertex="1" parent="qQBRJ47vKQDhWzbW-TcR-170">
          <mxGeometry y="52" width="160" height="8" as="geometry" />
        </mxCell>
        <mxCell id="qQBRJ47vKQDhWzbW-TcR-173" value="+ method(type): type" style="text;strokeColor=none;fillColor=none;align=left;verticalAlign=top;spacingLeft=4;spacingRight=4;overflow=hidden;rotatable=0;points=[[0,0.5],[1,0.5]];portConstraint=eastwest;rounded=1;shadow=1;glass=1;sketch=1;fontFamily=Helvetica;fontSize=12;fontColor=default;startSize=26;" vertex="1" parent="qQBRJ47vKQDhWzbW-TcR-170">
          <mxGeometry y="60" width="160" height="26" as="geometry" />
        </mxCell>
        <mxCell id="qQBRJ47vKQDhWzbW-TcR-174" value="SFCurrencyFundConvertListVC" style="swimlane;fontStyle=1;align=center;verticalAlign=top;childLayout=stackLayout;horizontal=1;startSize=26;horizontalStack=0;resizeParent=1;resizeParentMax=0;resizeLast=0;collapsible=1;marginBottom=0;rounded=1;shadow=1;glass=1;sketch=1;fontFamily=Helvetica;fontSize=12;fontColor=default;strokeColor=default;strokeWidth=1;fillColor=default;" vertex="1" parent="WIyWlLk6GJQsqaUBKTNV-1">
          <mxGeometry x="260" y="750" width="230" height="86" as="geometry">
            <mxRectangle x="290" y="750" width="210" height="26" as="alternateBounds" />
          </mxGeometry>
        </mxCell>
        <mxCell id="qQBRJ47vKQDhWzbW-TcR-175" value="+ field: type" style="text;strokeColor=none;fillColor=none;align=left;verticalAlign=top;spacingLeft=4;spacingRight=4;overflow=hidden;rotatable=0;points=[[0,0.5],[1,0.5]];portConstraint=eastwest;rounded=1;shadow=1;glass=1;sketch=1;fontFamily=Helvetica;fontSize=12;fontColor=default;startSize=26;" vertex="1" parent="qQBRJ47vKQDhWzbW-TcR-174">
          <mxGeometry y="26" width="230" height="26" as="geometry" />
        </mxCell>
        <mxCell id="qQBRJ47vKQDhWzbW-TcR-176" value="" style="line;strokeWidth=1;fillColor=none;align=left;verticalAlign=middle;spacingTop=-1;spacingLeft=3;spacingRight=3;rotatable=0;labelPosition=right;points=[];portConstraint=eastwest;rounded=1;shadow=1;glass=1;sketch=1;fontFamily=Helvetica;fontSize=12;fontColor=default;startSize=26;" vertex="1" parent="qQBRJ47vKQDhWzbW-TcR-174">
          <mxGeometry y="52" width="230" height="8" as="geometry" />
        </mxCell>
        <mxCell id="qQBRJ47vKQDhWzbW-TcR-177" value="+ method(type): type" style="text;strokeColor=none;fillColor=none;align=left;verticalAlign=top;spacingLeft=4;spacingRight=4;overflow=hidden;rotatable=0;points=[[0,0.5],[1,0.5]];portConstraint=eastwest;rounded=1;shadow=1;glass=1;sketch=1;fontFamily=Helvetica;fontSize=12;fontColor=default;startSize=26;" vertex="1" parent="qQBRJ47vKQDhWzbW-TcR-174">
          <mxGeometry y="60" width="230" height="26" as="geometry" />
        </mxCell>
        <mxCell id="qQBRJ47vKQDhWzbW-TcR-377" style="edgeStyle=orthogonalEdgeStyle;rounded=0;orthogonalLoop=1;jettySize=auto;html=1;exitX=1;exitY=0.5;exitDx=0;exitDy=0;fontFamily=Helvetica;fontSize=12;fontColor=default;startSize=26;" edge="1" parent="WIyWlLk6GJQsqaUBKTNV-1" source="qQBRJ47vKQDhWzbW-TcR-178" target="qQBRJ47vKQDhWzbW-TcR-74">
          <mxGeometry relative="1" as="geometry" />
        </mxCell>
        <mxCell id="qQBRJ47vKQDhWzbW-TcR-178" value="SFFinancialProductProvisionVC" style="swimlane;fontStyle=1;align=center;verticalAlign=top;childLayout=stackLayout;horizontal=1;startSize=26;horizontalStack=0;resizeParent=1;resizeParentMax=0;resizeLast=0;collapsible=1;marginBottom=0;rounded=1;shadow=1;glass=1;sketch=1;fontFamily=Helvetica;fontSize=12;fontColor=default;strokeColor=default;strokeWidth=1;fillColor=default;" vertex="1" parent="WIyWlLk6GJQsqaUBKTNV-1">
          <mxGeometry x="290" y="870" width="190" height="100" as="geometry">
            <mxRectangle x="280" y="873" width="220" height="26" as="alternateBounds" />
          </mxGeometry>
        </mxCell>
        <mxCell id="qQBRJ47vKQDhWzbW-TcR-179" value="+ field: type" style="text;strokeColor=none;fillColor=none;align=left;verticalAlign=top;spacingLeft=4;spacingRight=4;overflow=hidden;rotatable=0;points=[[0,0.5],[1,0.5]];portConstraint=eastwest;rounded=1;shadow=1;glass=1;sketch=1;fontFamily=Helvetica;fontSize=12;fontColor=default;startSize=26;" vertex="1" parent="qQBRJ47vKQDhWzbW-TcR-178">
          <mxGeometry y="26" width="190" height="26" as="geometry" />
        </mxCell>
        <mxCell id="qQBRJ47vKQDhWzbW-TcR-180" value="" style="line;strokeWidth=1;fillColor=none;align=left;verticalAlign=middle;spacingTop=-1;spacingLeft=3;spacingRight=3;rotatable=0;labelPosition=right;points=[];portConstraint=eastwest;rounded=1;shadow=1;glass=1;sketch=1;fontFamily=Helvetica;fontSize=12;fontColor=default;startSize=26;" vertex="1" parent="qQBRJ47vKQDhWzbW-TcR-178">
          <mxGeometry y="52" width="190" height="8" as="geometry" />
        </mxCell>
        <mxCell id="qQBRJ47vKQDhWzbW-TcR-181" value="+ method(type): type" style="text;strokeColor=none;fillColor=none;align=left;verticalAlign=top;spacingLeft=4;spacingRight=4;overflow=hidden;rotatable=0;points=[[0,0.5],[1,0.5]];portConstraint=eastwest;rounded=1;shadow=1;glass=1;sketch=1;fontFamily=Helvetica;fontSize=12;fontColor=default;startSize=26;" vertex="1" parent="qQBRJ47vKQDhWzbW-TcR-178">
          <mxGeometry y="60" width="190" height="40" as="geometry" />
        </mxCell>
        <mxCell id="qQBRJ47vKQDhWzbW-TcR-182" value="FinancialProductReserveListVC" style="swimlane;fontStyle=1;align=center;verticalAlign=top;childLayout=stackLayout;horizontal=1;startSize=26;horizontalStack=0;resizeParent=1;resizeParentMax=0;resizeLast=0;collapsible=1;marginBottom=0;rounded=1;shadow=1;glass=1;sketch=1;fontFamily=Helvetica;fontSize=12;fontColor=default;strokeColor=default;strokeWidth=1;fillColor=default;" vertex="1" parent="WIyWlLk6GJQsqaUBKTNV-1">
          <mxGeometry x="280" y="50" width="230" height="86" as="geometry" />
        </mxCell>
        <mxCell id="qQBRJ47vKQDhWzbW-TcR-183" value="+ field: type" style="text;strokeColor=none;fillColor=none;align=left;verticalAlign=top;spacingLeft=4;spacingRight=4;overflow=hidden;rotatable=0;points=[[0,0.5],[1,0.5]];portConstraint=eastwest;rounded=1;shadow=1;glass=1;sketch=1;fontFamily=Helvetica;fontSize=12;fontColor=default;startSize=26;" vertex="1" parent="qQBRJ47vKQDhWzbW-TcR-182">
          <mxGeometry y="26" width="230" height="26" as="geometry" />
        </mxCell>
        <mxCell id="qQBRJ47vKQDhWzbW-TcR-184" value="" style="line;strokeWidth=1;fillColor=none;align=left;verticalAlign=middle;spacingTop=-1;spacingLeft=3;spacingRight=3;rotatable=0;labelPosition=right;points=[];portConstraint=eastwest;rounded=1;shadow=1;glass=1;sketch=1;fontFamily=Helvetica;fontSize=12;fontColor=default;startSize=26;" vertex="1" parent="qQBRJ47vKQDhWzbW-TcR-182">
          <mxGeometry y="52" width="230" height="8" as="geometry" />
        </mxCell>
        <mxCell id="qQBRJ47vKQDhWzbW-TcR-185" value="+ method(type): type" style="text;strokeColor=none;fillColor=none;align=left;verticalAlign=top;spacingLeft=4;spacingRight=4;overflow=hidden;rotatable=0;points=[[0,0.5],[1,0.5]];portConstraint=eastwest;rounded=1;shadow=1;glass=1;sketch=1;fontFamily=Helvetica;fontSize=12;fontColor=default;startSize=26;" vertex="1" parent="qQBRJ47vKQDhWzbW-TcR-182">
          <mxGeometry y="60" width="230" height="26" as="geometry" />
        </mxCell>
        <mxCell id="qQBRJ47vKQDhWzbW-TcR-186" value="SFAutoInvestListVC" style="swimlane;fontStyle=1;align=center;verticalAlign=top;childLayout=stackLayout;horizontal=1;startSize=26;horizontalStack=0;resizeParent=1;resizeParentMax=0;resizeLast=0;collapsible=1;marginBottom=0;rounded=1;shadow=1;glass=1;sketch=1;fontFamily=Helvetica;fontSize=12;fontColor=default;strokeColor=default;strokeWidth=1;fillColor=default;" vertex="1" parent="WIyWlLk6GJQsqaUBKTNV-1">
          <mxGeometry x="350" y="590" width="160" height="86" as="geometry">
            <mxRectangle x="350" y="590" width="150" height="26" as="alternateBounds" />
          </mxGeometry>
        </mxCell>
        <mxCell id="qQBRJ47vKQDhWzbW-TcR-187" value="+ field: type" style="text;strokeColor=none;fillColor=none;align=left;verticalAlign=top;spacingLeft=4;spacingRight=4;overflow=hidden;rotatable=0;points=[[0,0.5],[1,0.5]];portConstraint=eastwest;rounded=1;shadow=1;glass=1;sketch=1;fontFamily=Helvetica;fontSize=12;fontColor=default;startSize=26;" vertex="1" parent="qQBRJ47vKQDhWzbW-TcR-186">
          <mxGeometry y="26" width="160" height="26" as="geometry" />
        </mxCell>
        <mxCell id="qQBRJ47vKQDhWzbW-TcR-188" value="" style="line;strokeWidth=1;fillColor=none;align=left;verticalAlign=middle;spacingTop=-1;spacingLeft=3;spacingRight=3;rotatable=0;labelPosition=right;points=[];portConstraint=eastwest;rounded=1;shadow=1;glass=1;sketch=1;fontFamily=Helvetica;fontSize=12;fontColor=default;startSize=26;" vertex="1" parent="qQBRJ47vKQDhWzbW-TcR-186">
          <mxGeometry y="52" width="160" height="8" as="geometry" />
        </mxCell>
        <mxCell id="qQBRJ47vKQDhWzbW-TcR-189" value="+ method(type): type" style="text;strokeColor=none;fillColor=none;align=left;verticalAlign=top;spacingLeft=4;spacingRight=4;overflow=hidden;rotatable=0;points=[[0,0.5],[1,0.5]];portConstraint=eastwest;rounded=1;shadow=1;glass=1;sketch=1;fontFamily=Helvetica;fontSize=12;fontColor=default;startSize=26;" vertex="1" parent="qQBRJ47vKQDhWzbW-TcR-186">
          <mxGeometry y="60" width="160" height="26" as="geometry" />
        </mxCell>
        <mxCell id="qQBRJ47vKQDhWzbW-TcR-190" value="SFAutoInvestInfoVC" style="swimlane;fontStyle=1;align=center;verticalAlign=top;childLayout=stackLayout;horizontal=1;startSize=26;horizontalStack=0;resizeParent=1;resizeParentMax=0;resizeLast=0;collapsible=1;marginBottom=0;rounded=1;shadow=1;glass=1;sketch=1;fontFamily=Helvetica;fontSize=12;fontColor=default;strokeColor=default;strokeWidth=1;fillColor=default;" vertex="1" parent="WIyWlLk6GJQsqaUBKTNV-1">
          <mxGeometry x="350" y="410" width="160" height="86" as="geometry">
            <mxRectangle x="350" y="410" width="150" height="26" as="alternateBounds" />
          </mxGeometry>
        </mxCell>
        <mxCell id="qQBRJ47vKQDhWzbW-TcR-191" value="+ field: type" style="text;strokeColor=none;fillColor=none;align=left;verticalAlign=top;spacingLeft=4;spacingRight=4;overflow=hidden;rotatable=0;points=[[0,0.5],[1,0.5]];portConstraint=eastwest;rounded=1;shadow=1;glass=1;sketch=1;fontFamily=Helvetica;fontSize=12;fontColor=default;startSize=26;" vertex="1" parent="qQBRJ47vKQDhWzbW-TcR-190">
          <mxGeometry y="26" width="160" height="26" as="geometry" />
        </mxCell>
        <mxCell id="qQBRJ47vKQDhWzbW-TcR-192" value="" style="line;strokeWidth=1;fillColor=none;align=left;verticalAlign=middle;spacingTop=-1;spacingLeft=3;spacingRight=3;rotatable=0;labelPosition=right;points=[];portConstraint=eastwest;rounded=1;shadow=1;glass=1;sketch=1;fontFamily=Helvetica;fontSize=12;fontColor=default;startSize=26;" vertex="1" parent="qQBRJ47vKQDhWzbW-TcR-190">
          <mxGeometry y="52" width="160" height="8" as="geometry" />
        </mxCell>
        <mxCell id="qQBRJ47vKQDhWzbW-TcR-193" value="+ method(type): type" style="text;strokeColor=none;fillColor=none;align=left;verticalAlign=top;spacingLeft=4;spacingRight=4;overflow=hidden;rotatable=0;points=[[0,0.5],[1,0.5]];portConstraint=eastwest;rounded=1;shadow=1;glass=1;sketch=1;fontFamily=Helvetica;fontSize=12;fontColor=default;startSize=26;" vertex="1" parent="qQBRJ47vKQDhWzbW-TcR-190">
          <mxGeometry y="60" width="160" height="26" as="geometry" />
        </mxCell>
        <mxCell id="qQBRJ47vKQDhWzbW-TcR-194" value="SFAssetManageInfoVC" style="swimlane;fontStyle=1;align=center;verticalAlign=top;childLayout=stackLayout;horizontal=1;startSize=26;horizontalStack=0;resizeParent=1;resizeParentMax=0;resizeLast=0;collapsible=1;marginBottom=0;rounded=1;shadow=1;glass=1;sketch=1;fontFamily=Helvetica;fontSize=12;fontColor=default;strokeColor=default;strokeWidth=1;fillColor=default;" vertex="1" parent="WIyWlLk6GJQsqaUBKTNV-1">
          <mxGeometry x="350" y="242" width="160" height="86" as="geometry" />
        </mxCell>
        <mxCell id="qQBRJ47vKQDhWzbW-TcR-195" value="+ field: type" style="text;strokeColor=none;fillColor=none;align=left;verticalAlign=top;spacingLeft=4;spacingRight=4;overflow=hidden;rotatable=0;points=[[0,0.5],[1,0.5]];portConstraint=eastwest;rounded=1;shadow=1;glass=1;sketch=1;fontFamily=Helvetica;fontSize=12;fontColor=default;startSize=26;" vertex="1" parent="qQBRJ47vKQDhWzbW-TcR-194">
          <mxGeometry y="26" width="160" height="26" as="geometry" />
        </mxCell>
        <mxCell id="qQBRJ47vKQDhWzbW-TcR-196" value="" style="line;strokeWidth=1;fillColor=none;align=left;verticalAlign=middle;spacingTop=-1;spacingLeft=3;spacingRight=3;rotatable=0;labelPosition=right;points=[];portConstraint=eastwest;rounded=1;shadow=1;glass=1;sketch=1;fontFamily=Helvetica;fontSize=12;fontColor=default;startSize=26;" vertex="1" parent="qQBRJ47vKQDhWzbW-TcR-194">
          <mxGeometry y="52" width="160" height="8" as="geometry" />
        </mxCell>
        <mxCell id="qQBRJ47vKQDhWzbW-TcR-197" value="+ method(type): type" style="text;strokeColor=none;fillColor=none;align=left;verticalAlign=top;spacingLeft=4;spacingRight=4;overflow=hidden;rotatable=0;points=[[0,0.5],[1,0.5]];portConstraint=eastwest;rounded=1;shadow=1;glass=1;sketch=1;fontFamily=Helvetica;fontSize=12;fontColor=default;startSize=26;" vertex="1" parent="qQBRJ47vKQDhWzbW-TcR-194">
          <mxGeometry y="60" width="160" height="26" as="geometry" />
        </mxCell>
        <mxCell id="qQBRJ47vKQDhWzbW-TcR-366" style="edgeStyle=orthogonalEdgeStyle;rounded=0;orthogonalLoop=1;jettySize=auto;html=1;exitX=0.5;exitY=0;exitDx=0;exitDy=0;fontFamily=Helvetica;fontSize=12;fontColor=default;startSize=26;" edge="1" parent="WIyWlLk6GJQsqaUBKTNV-1" source="qQBRJ47vKQDhWzbW-TcR-198">
          <mxGeometry relative="1" as="geometry">
            <mxPoint x="1270" y="1360" as="targetPoint" />
          </mxGeometry>
        </mxCell>
        <mxCell id="qQBRJ47vKQDhWzbW-TcR-198" value="SFFinancialProductInfoVC" style="swimlane;fontStyle=1;align=center;verticalAlign=top;childLayout=stackLayout;horizontal=1;startSize=26;horizontalStack=0;resizeParent=1;resizeParentMax=0;resizeLast=0;collapsible=1;marginBottom=0;rounded=1;shadow=1;glass=1;sketch=1;fontFamily=Helvetica;fontSize=12;fontColor=default;strokeColor=default;strokeWidth=1;fillColor=default;" vertex="1" parent="WIyWlLk6GJQsqaUBKTNV-1">
          <mxGeometry x="770" y="1750" width="160" height="86" as="geometry" />
        </mxCell>
        <mxCell id="qQBRJ47vKQDhWzbW-TcR-199" value="+ field: type" style="text;strokeColor=none;fillColor=none;align=left;verticalAlign=top;spacingLeft=4;spacingRight=4;overflow=hidden;rotatable=0;points=[[0,0.5],[1,0.5]];portConstraint=eastwest;rounded=1;shadow=1;glass=1;sketch=1;fontFamily=Helvetica;fontSize=12;fontColor=default;startSize=26;" vertex="1" parent="qQBRJ47vKQDhWzbW-TcR-198">
          <mxGeometry y="26" width="160" height="26" as="geometry" />
        </mxCell>
        <mxCell id="qQBRJ47vKQDhWzbW-TcR-200" value="" style="line;strokeWidth=1;fillColor=none;align=left;verticalAlign=middle;spacingTop=-1;spacingLeft=3;spacingRight=3;rotatable=0;labelPosition=right;points=[];portConstraint=eastwest;rounded=1;shadow=1;glass=1;sketch=1;fontFamily=Helvetica;fontSize=12;fontColor=default;startSize=26;" vertex="1" parent="qQBRJ47vKQDhWzbW-TcR-198">
          <mxGeometry y="52" width="160" height="8" as="geometry" />
        </mxCell>
        <mxCell id="qQBRJ47vKQDhWzbW-TcR-201" value="+ method(type): type" style="text;strokeColor=none;fillColor=none;align=left;verticalAlign=top;spacingLeft=4;spacingRight=4;overflow=hidden;rotatable=0;points=[[0,0.5],[1,0.5]];portConstraint=eastwest;rounded=1;shadow=1;glass=1;sketch=1;fontFamily=Helvetica;fontSize=12;fontColor=default;startSize=26;" vertex="1" parent="qQBRJ47vKQDhWzbW-TcR-198">
          <mxGeometry y="60" width="160" height="26" as="geometry" />
        </mxCell>
        <mxCell id="qQBRJ47vKQDhWzbW-TcR-215" value="SFFundConversionOptionsVC" style="swimlane;fontStyle=1;align=center;verticalAlign=top;childLayout=stackLayout;horizontal=1;startSize=26;horizontalStack=0;resizeParent=1;resizeParentMax=0;resizeLast=0;collapsible=1;marginBottom=0;rounded=1;shadow=1;glass=1;sketch=1;fontFamily=Helvetica;fontSize=12;fontColor=default;strokeColor=default;strokeWidth=1;fillColor=default;" vertex="1" parent="WIyWlLk6GJQsqaUBKTNV-1">
          <mxGeometry x="2115" y="1370" width="310" height="86" as="geometry" />
        </mxCell>
        <mxCell id="qQBRJ47vKQDhWzbW-TcR-216" value="+ field: type" style="text;strokeColor=none;fillColor=none;align=left;verticalAlign=top;spacingLeft=4;spacingRight=4;overflow=hidden;rotatable=0;points=[[0,0.5],[1,0.5]];portConstraint=eastwest;rounded=1;shadow=1;glass=1;sketch=1;fontFamily=Helvetica;fontSize=12;fontColor=default;startSize=26;" vertex="1" parent="qQBRJ47vKQDhWzbW-TcR-215">
          <mxGeometry y="26" width="310" height="26" as="geometry" />
        </mxCell>
        <mxCell id="qQBRJ47vKQDhWzbW-TcR-217" value="" style="line;strokeWidth=1;fillColor=none;align=left;verticalAlign=middle;spacingTop=-1;spacingLeft=3;spacingRight=3;rotatable=0;labelPosition=right;points=[];portConstraint=eastwest;rounded=1;shadow=1;glass=1;sketch=1;fontFamily=Helvetica;fontSize=12;fontColor=default;startSize=26;" vertex="1" parent="qQBRJ47vKQDhWzbW-TcR-215">
          <mxGeometry y="52" width="310" height="8" as="geometry" />
        </mxCell>
        <mxCell id="qQBRJ47vKQDhWzbW-TcR-218" value="+ method(type): type" style="text;strokeColor=none;fillColor=none;align=left;verticalAlign=top;spacingLeft=4;spacingRight=4;overflow=hidden;rotatable=0;points=[[0,0.5],[1,0.5]];portConstraint=eastwest;rounded=1;shadow=1;glass=1;sketch=1;fontFamily=Helvetica;fontSize=12;fontColor=default;startSize=26;" vertex="1" parent="qQBRJ47vKQDhWzbW-TcR-215">
          <mxGeometry y="60" width="310" height="26" as="geometry" />
        </mxCell>
        <mxCell id="qQBRJ47vKQDhWzbW-TcR-219" value="FundInfoVC" style="swimlane;fontStyle=1;align=center;verticalAlign=top;childLayout=stackLayout;horizontal=1;startSize=26;horizontalStack=0;resizeParent=1;resizeParentMax=0;resizeLast=0;collapsible=1;marginBottom=0;rounded=1;shadow=1;glass=1;sketch=1;fontFamily=Helvetica;fontSize=12;fontColor=default;strokeColor=default;strokeWidth=1;fillColor=default;" vertex="1" parent="WIyWlLk6GJQsqaUBKTNV-1">
          <mxGeometry x="2125" y="1250" width="160" height="86" as="geometry" />
        </mxCell>
        <mxCell id="qQBRJ47vKQDhWzbW-TcR-220" value="+ field: type" style="text;strokeColor=none;fillColor=none;align=left;verticalAlign=top;spacingLeft=4;spacingRight=4;overflow=hidden;rotatable=0;points=[[0,0.5],[1,0.5]];portConstraint=eastwest;rounded=1;shadow=1;glass=1;sketch=1;fontFamily=Helvetica;fontSize=12;fontColor=default;startSize=26;" vertex="1" parent="qQBRJ47vKQDhWzbW-TcR-219">
          <mxGeometry y="26" width="160" height="26" as="geometry" />
        </mxCell>
        <mxCell id="qQBRJ47vKQDhWzbW-TcR-221" value="" style="line;strokeWidth=1;fillColor=none;align=left;verticalAlign=middle;spacingTop=-1;spacingLeft=3;spacingRight=3;rotatable=0;labelPosition=right;points=[];portConstraint=eastwest;rounded=1;shadow=1;glass=1;sketch=1;fontFamily=Helvetica;fontSize=12;fontColor=default;startSize=26;" vertex="1" parent="qQBRJ47vKQDhWzbW-TcR-219">
          <mxGeometry y="52" width="160" height="8" as="geometry" />
        </mxCell>
        <mxCell id="qQBRJ47vKQDhWzbW-TcR-222" value="+ method(type): type" style="text;strokeColor=none;fillColor=none;align=left;verticalAlign=top;spacingLeft=4;spacingRight=4;overflow=hidden;rotatable=0;points=[[0,0.5],[1,0.5]];portConstraint=eastwest;rounded=1;shadow=1;glass=1;sketch=1;fontFamily=Helvetica;fontSize=12;fontColor=default;startSize=26;" vertex="1" parent="qQBRJ47vKQDhWzbW-TcR-219">
          <mxGeometry y="60" width="160" height="26" as="geometry" />
        </mxCell>
        <mxCell id="qQBRJ47vKQDhWzbW-TcR-223" value="SFSnowHoldingTradeVC" style="swimlane;fontStyle=1;align=center;verticalAlign=top;childLayout=stackLayout;horizontal=1;startSize=26;horizontalStack=0;resizeParent=1;resizeParentMax=0;resizeLast=0;collapsible=1;marginBottom=0;rounded=1;shadow=1;glass=1;sketch=1;fontFamily=Helvetica;fontSize=12;fontColor=default;strokeColor=default;strokeWidth=1;fillColor=default;" vertex="1" parent="WIyWlLk6GJQsqaUBKTNV-1">
          <mxGeometry x="2115" y="900" width="240" height="86" as="geometry" />
        </mxCell>
        <mxCell id="qQBRJ47vKQDhWzbW-TcR-224" value="+ field: type" style="text;strokeColor=none;fillColor=none;align=left;verticalAlign=top;spacingLeft=4;spacingRight=4;overflow=hidden;rotatable=0;points=[[0,0.5],[1,0.5]];portConstraint=eastwest;rounded=1;shadow=1;glass=1;sketch=1;fontFamily=Helvetica;fontSize=12;fontColor=default;startSize=26;" vertex="1" parent="qQBRJ47vKQDhWzbW-TcR-223">
          <mxGeometry y="26" width="240" height="26" as="geometry" />
        </mxCell>
        <mxCell id="qQBRJ47vKQDhWzbW-TcR-225" value="" style="line;strokeWidth=1;fillColor=none;align=left;verticalAlign=middle;spacingTop=-1;spacingLeft=3;spacingRight=3;rotatable=0;labelPosition=right;points=[];portConstraint=eastwest;rounded=1;shadow=1;glass=1;sketch=1;fontFamily=Helvetica;fontSize=12;fontColor=default;startSize=26;" vertex="1" parent="qQBRJ47vKQDhWzbW-TcR-223">
          <mxGeometry y="52" width="240" height="8" as="geometry" />
        </mxCell>
        <mxCell id="qQBRJ47vKQDhWzbW-TcR-226" value="+ method(type): type" style="text;strokeColor=none;fillColor=none;align=left;verticalAlign=top;spacingLeft=4;spacingRight=4;overflow=hidden;rotatable=0;points=[[0,0.5],[1,0.5]];portConstraint=eastwest;rounded=1;shadow=1;glass=1;sketch=1;fontFamily=Helvetica;fontSize=12;fontColor=default;startSize=26;" vertex="1" parent="qQBRJ47vKQDhWzbW-TcR-223">
          <mxGeometry y="60" width="240" height="26" as="geometry" />
        </mxCell>
        <mxCell id="qQBRJ47vKQDhWzbW-TcR-227" value="SFSnowFundInputContainerVC" style="swimlane;fontStyle=1;align=center;verticalAlign=top;childLayout=stackLayout;horizontal=1;startSize=26;horizontalStack=0;resizeParent=1;resizeParentMax=0;resizeLast=0;collapsible=1;marginBottom=0;rounded=1;shadow=1;glass=1;sketch=1;fontFamily=Helvetica;fontSize=12;fontColor=default;strokeColor=default;strokeWidth=1;fillColor=default;" vertex="1" parent="WIyWlLk6GJQsqaUBKTNV-1">
          <mxGeometry x="2125" y="1070" width="220" height="86" as="geometry" />
        </mxCell>
        <mxCell id="qQBRJ47vKQDhWzbW-TcR-228" value="+ field: type" style="text;strokeColor=none;fillColor=none;align=left;verticalAlign=top;spacingLeft=4;spacingRight=4;overflow=hidden;rotatable=0;points=[[0,0.5],[1,0.5]];portConstraint=eastwest;rounded=1;shadow=1;glass=1;sketch=1;fontFamily=Helvetica;fontSize=12;fontColor=default;startSize=26;" vertex="1" parent="qQBRJ47vKQDhWzbW-TcR-227">
          <mxGeometry y="26" width="220" height="26" as="geometry" />
        </mxCell>
        <mxCell id="qQBRJ47vKQDhWzbW-TcR-229" value="" style="line;strokeWidth=1;fillColor=none;align=left;verticalAlign=middle;spacingTop=-1;spacingLeft=3;spacingRight=3;rotatable=0;labelPosition=right;points=[];portConstraint=eastwest;rounded=1;shadow=1;glass=1;sketch=1;fontFamily=Helvetica;fontSize=12;fontColor=default;startSize=26;" vertex="1" parent="qQBRJ47vKQDhWzbW-TcR-227">
          <mxGeometry y="52" width="220" height="8" as="geometry" />
        </mxCell>
        <mxCell id="qQBRJ47vKQDhWzbW-TcR-230" value="+ method(type): type" style="text;strokeColor=none;fillColor=none;align=left;verticalAlign=top;spacingLeft=4;spacingRight=4;overflow=hidden;rotatable=0;points=[[0,0.5],[1,0.5]];portConstraint=eastwest;rounded=1;shadow=1;glass=1;sketch=1;fontFamily=Helvetica;fontSize=12;fontColor=default;startSize=26;" vertex="1" parent="qQBRJ47vKQDhWzbW-TcR-227">
          <mxGeometry y="60" width="220" height="26" as="geometry" />
        </mxCell>
        <mxCell id="qQBRJ47vKQDhWzbW-TcR-232" value="PrivateEquityInfoVC" style="swimlane;fontStyle=1;align=center;verticalAlign=top;childLayout=stackLayout;horizontal=1;startSize=26;horizontalStack=0;resizeParent=1;resizeParentMax=0;resizeLast=0;collapsible=1;marginBottom=0;rounded=1;shadow=1;glass=1;sketch=1;fontFamily=Helvetica;fontSize=12;fontColor=default;strokeColor=default;strokeWidth=1;fillColor=default;" vertex="1" parent="WIyWlLk6GJQsqaUBKTNV-1">
          <mxGeometry x="2115" y="306" width="160" height="86" as="geometry" />
        </mxCell>
        <mxCell id="qQBRJ47vKQDhWzbW-TcR-233" value="+ field: type" style="text;strokeColor=none;fillColor=none;align=left;verticalAlign=top;spacingLeft=4;spacingRight=4;overflow=hidden;rotatable=0;points=[[0,0.5],[1,0.5]];portConstraint=eastwest;rounded=1;shadow=1;glass=1;sketch=1;fontFamily=Helvetica;fontSize=12;fontColor=default;startSize=26;" vertex="1" parent="qQBRJ47vKQDhWzbW-TcR-232">
          <mxGeometry y="26" width="160" height="26" as="geometry" />
        </mxCell>
        <mxCell id="qQBRJ47vKQDhWzbW-TcR-234" value="" style="line;strokeWidth=1;fillColor=none;align=left;verticalAlign=middle;spacingTop=-1;spacingLeft=3;spacingRight=3;rotatable=0;labelPosition=right;points=[];portConstraint=eastwest;rounded=1;shadow=1;glass=1;sketch=1;fontFamily=Helvetica;fontSize=12;fontColor=default;startSize=26;" vertex="1" parent="qQBRJ47vKQDhWzbW-TcR-232">
          <mxGeometry y="52" width="160" height="8" as="geometry" />
        </mxCell>
        <mxCell id="qQBRJ47vKQDhWzbW-TcR-235" value="+ method(type): type" style="text;strokeColor=none;fillColor=none;align=left;verticalAlign=top;spacingLeft=4;spacingRight=4;overflow=hidden;rotatable=0;points=[[0,0.5],[1,0.5]];portConstraint=eastwest;rounded=1;shadow=1;glass=1;sketch=1;fontFamily=Helvetica;fontSize=12;fontColor=default;startSize=26;" vertex="1" parent="qQBRJ47vKQDhWzbW-TcR-232">
          <mxGeometry y="60" width="160" height="26" as="geometry" />
        </mxCell>
        <mxCell id="qQBRJ47vKQDhWzbW-TcR-236" value="PrivateEquityReserverVC" style="swimlane;fontStyle=1;align=center;verticalAlign=top;childLayout=stackLayout;horizontal=1;startSize=26;horizontalStack=0;resizeParent=1;resizeParentMax=0;resizeLast=0;collapsible=1;marginBottom=0;rounded=1;shadow=1;glass=1;sketch=1;fontFamily=Helvetica;fontSize=12;fontColor=default;strokeColor=default;strokeWidth=1;fillColor=default;" vertex="1" parent="WIyWlLk6GJQsqaUBKTNV-1">
          <mxGeometry x="2115" y="450" width="300" height="86" as="geometry" />
        </mxCell>
        <mxCell id="qQBRJ47vKQDhWzbW-TcR-237" value="+ field: type" style="text;strokeColor=none;fillColor=none;align=left;verticalAlign=top;spacingLeft=4;spacingRight=4;overflow=hidden;rotatable=0;points=[[0,0.5],[1,0.5]];portConstraint=eastwest;rounded=1;shadow=1;glass=1;sketch=1;fontFamily=Helvetica;fontSize=12;fontColor=default;startSize=26;" vertex="1" parent="qQBRJ47vKQDhWzbW-TcR-236">
          <mxGeometry y="26" width="300" height="26" as="geometry" />
        </mxCell>
        <mxCell id="qQBRJ47vKQDhWzbW-TcR-238" value="" style="line;strokeWidth=1;fillColor=none;align=left;verticalAlign=middle;spacingTop=-1;spacingLeft=3;spacingRight=3;rotatable=0;labelPosition=right;points=[];portConstraint=eastwest;rounded=1;shadow=1;glass=1;sketch=1;fontFamily=Helvetica;fontSize=12;fontColor=default;startSize=26;" vertex="1" parent="qQBRJ47vKQDhWzbW-TcR-236">
          <mxGeometry y="52" width="300" height="8" as="geometry" />
        </mxCell>
        <mxCell id="qQBRJ47vKQDhWzbW-TcR-239" value="+ method(type): type" style="text;strokeColor=none;fillColor=none;align=left;verticalAlign=top;spacingLeft=4;spacingRight=4;overflow=hidden;rotatable=0;points=[[0,0.5],[1,0.5]];portConstraint=eastwest;rounded=1;shadow=1;glass=1;sketch=1;fontFamily=Helvetica;fontSize=12;fontColor=default;startSize=26;" vertex="1" parent="qQBRJ47vKQDhWzbW-TcR-236">
          <mxGeometry y="60" width="300" height="26" as="geometry" />
        </mxCell>
        <mxCell id="qQBRJ47vKQDhWzbW-TcR-240" value="SFCustomStrategyTransactionComponetVC" style="swimlane;fontStyle=1;align=center;verticalAlign=top;childLayout=stackLayout;horizontal=1;startSize=26;horizontalStack=0;resizeParent=1;resizeParentMax=0;resizeLast=0;collapsible=1;marginBottom=0;rounded=1;shadow=1;glass=1;sketch=1;fontFamily=Helvetica;fontSize=12;fontColor=default;strokeColor=default;strokeWidth=1;fillColor=default;" vertex="1" parent="WIyWlLk6GJQsqaUBKTNV-1">
          <mxGeometry x="2115" y="590" width="320" height="86" as="geometry" />
        </mxCell>
        <mxCell id="qQBRJ47vKQDhWzbW-TcR-241" value="+ field: type" style="text;strokeColor=none;fillColor=none;align=left;verticalAlign=top;spacingLeft=4;spacingRight=4;overflow=hidden;rotatable=0;points=[[0,0.5],[1,0.5]];portConstraint=eastwest;rounded=1;shadow=1;glass=1;sketch=1;fontFamily=Helvetica;fontSize=12;fontColor=default;startSize=26;" vertex="1" parent="qQBRJ47vKQDhWzbW-TcR-240">
          <mxGeometry y="26" width="320" height="26" as="geometry" />
        </mxCell>
        <mxCell id="qQBRJ47vKQDhWzbW-TcR-242" value="" style="line;strokeWidth=1;fillColor=none;align=left;verticalAlign=middle;spacingTop=-1;spacingLeft=3;spacingRight=3;rotatable=0;labelPosition=right;points=[];portConstraint=eastwest;rounded=1;shadow=1;glass=1;sketch=1;fontFamily=Helvetica;fontSize=12;fontColor=default;startSize=26;" vertex="1" parent="qQBRJ47vKQDhWzbW-TcR-240">
          <mxGeometry y="52" width="320" height="8" as="geometry" />
        </mxCell>
        <mxCell id="qQBRJ47vKQDhWzbW-TcR-243" value="+ method(type): type" style="text;strokeColor=none;fillColor=none;align=left;verticalAlign=top;spacingLeft=4;spacingRight=4;overflow=hidden;rotatable=0;points=[[0,0.5],[1,0.5]];portConstraint=eastwest;rounded=1;shadow=1;glass=1;sketch=1;fontFamily=Helvetica;fontSize=12;fontColor=default;startSize=26;" vertex="1" parent="qQBRJ47vKQDhWzbW-TcR-240">
          <mxGeometry y="60" width="320" height="26" as="geometry" />
        </mxCell>
        <mxCell id="qQBRJ47vKQDhWzbW-TcR-244" value="PrivateEquityProvisionVC" style="swimlane;fontStyle=1;align=center;verticalAlign=top;childLayout=stackLayout;horizontal=1;startSize=26;horizontalStack=0;resizeParent=1;resizeParentMax=0;resizeLast=0;collapsible=1;marginBottom=0;rounded=1;shadow=1;glass=1;sketch=1;fontFamily=Helvetica;fontSize=12;fontColor=default;strokeColor=default;strokeWidth=1;fillColor=default;" vertex="1" parent="WIyWlLk6GJQsqaUBKTNV-1">
          <mxGeometry x="1570" y="40" width="160" height="86" as="geometry" />
        </mxCell>
        <mxCell id="qQBRJ47vKQDhWzbW-TcR-245" value="+ field: type" style="text;strokeColor=none;fillColor=none;align=left;verticalAlign=top;spacingLeft=4;spacingRight=4;overflow=hidden;rotatable=0;points=[[0,0.5],[1,0.5]];portConstraint=eastwest;rounded=1;shadow=1;glass=1;sketch=1;fontFamily=Helvetica;fontSize=12;fontColor=default;startSize=26;" vertex="1" parent="qQBRJ47vKQDhWzbW-TcR-244">
          <mxGeometry y="26" width="160" height="26" as="geometry" />
        </mxCell>
        <mxCell id="qQBRJ47vKQDhWzbW-TcR-246" value="" style="line;strokeWidth=1;fillColor=none;align=left;verticalAlign=middle;spacingTop=-1;spacingLeft=3;spacingRight=3;rotatable=0;labelPosition=right;points=[];portConstraint=eastwest;rounded=1;shadow=1;glass=1;sketch=1;fontFamily=Helvetica;fontSize=12;fontColor=default;startSize=26;" vertex="1" parent="qQBRJ47vKQDhWzbW-TcR-244">
          <mxGeometry y="52" width="160" height="8" as="geometry" />
        </mxCell>
        <mxCell id="qQBRJ47vKQDhWzbW-TcR-247" value="+ method(type): type" style="text;strokeColor=none;fillColor=none;align=left;verticalAlign=top;spacingLeft=4;spacingRight=4;overflow=hidden;rotatable=0;points=[[0,0.5],[1,0.5]];portConstraint=eastwest;rounded=1;shadow=1;glass=1;sketch=1;fontFamily=Helvetica;fontSize=12;fontColor=default;startSize=26;" vertex="1" parent="qQBRJ47vKQDhWzbW-TcR-244">
          <mxGeometry y="60" width="160" height="26" as="geometry" />
        </mxCell>
        <mxCell id="qQBRJ47vKQDhWzbW-TcR-248" value="PrivateEquityContractDraftVC" style="swimlane;fontStyle=1;align=center;verticalAlign=top;childLayout=stackLayout;horizontal=1;startSize=26;horizontalStack=0;resizeParent=1;resizeParentMax=0;resizeLast=0;collapsible=1;marginBottom=0;rounded=1;shadow=1;glass=1;sketch=1;fontFamily=Helvetica;fontSize=12;fontColor=default;strokeColor=default;strokeWidth=1;fillColor=default;" vertex="1" parent="WIyWlLk6GJQsqaUBKTNV-1">
          <mxGeometry x="2110" y="156" width="310" height="86" as="geometry" />
        </mxCell>
        <mxCell id="qQBRJ47vKQDhWzbW-TcR-249" value="+ field: type" style="text;strokeColor=none;fillColor=none;align=left;verticalAlign=top;spacingLeft=4;spacingRight=4;overflow=hidden;rotatable=0;points=[[0,0.5],[1,0.5]];portConstraint=eastwest;rounded=1;shadow=1;glass=1;sketch=1;fontFamily=Helvetica;fontSize=12;fontColor=default;startSize=26;" vertex="1" parent="qQBRJ47vKQDhWzbW-TcR-248">
          <mxGeometry y="26" width="310" height="26" as="geometry" />
        </mxCell>
        <mxCell id="qQBRJ47vKQDhWzbW-TcR-250" value="" style="line;strokeWidth=1;fillColor=none;align=left;verticalAlign=middle;spacingTop=-1;spacingLeft=3;spacingRight=3;rotatable=0;labelPosition=right;points=[];portConstraint=eastwest;rounded=1;shadow=1;glass=1;sketch=1;fontFamily=Helvetica;fontSize=12;fontColor=default;startSize=26;" vertex="1" parent="qQBRJ47vKQDhWzbW-TcR-248">
          <mxGeometry y="52" width="310" height="8" as="geometry" />
        </mxCell>
        <mxCell id="qQBRJ47vKQDhWzbW-TcR-251" value="+ method(type): type" style="text;strokeColor=none;fillColor=none;align=left;verticalAlign=top;spacingLeft=4;spacingRight=4;overflow=hidden;rotatable=0;points=[[0,0.5],[1,0.5]];portConstraint=eastwest;rounded=1;shadow=1;glass=1;sketch=1;fontFamily=Helvetica;fontSize=12;fontColor=default;startSize=26;" vertex="1" parent="qQBRJ47vKQDhWzbW-TcR-248">
          <mxGeometry y="60" width="310" height="26" as="geometry" />
        </mxCell>
        <mxCell id="qQBRJ47vKQDhWzbW-TcR-252" value="SFFundStockInfoVC" style="swimlane;fontStyle=1;align=center;verticalAlign=top;childLayout=stackLayout;horizontal=1;startSize=26;horizontalStack=0;resizeParent=1;resizeParentMax=0;resizeLast=0;collapsible=1;marginBottom=0;rounded=1;shadow=1;glass=1;sketch=1;fontFamily=Helvetica;fontSize=12;fontColor=default;strokeColor=default;strokeWidth=1;fillColor=default;" vertex="1" parent="WIyWlLk6GJQsqaUBKTNV-1">
          <mxGeometry x="650" y="40" width="160" height="86" as="geometry" />
        </mxCell>
        <mxCell id="qQBRJ47vKQDhWzbW-TcR-253" value="+ field: type" style="text;strokeColor=none;fillColor=none;align=left;verticalAlign=top;spacingLeft=4;spacingRight=4;overflow=hidden;rotatable=0;points=[[0,0.5],[1,0.5]];portConstraint=eastwest;rounded=1;shadow=1;glass=1;sketch=1;fontFamily=Helvetica;fontSize=12;fontColor=default;startSize=26;" vertex="1" parent="qQBRJ47vKQDhWzbW-TcR-252">
          <mxGeometry y="26" width="160" height="26" as="geometry" />
        </mxCell>
        <mxCell id="qQBRJ47vKQDhWzbW-TcR-254" value="" style="line;strokeWidth=1;fillColor=none;align=left;verticalAlign=middle;spacingTop=-1;spacingLeft=3;spacingRight=3;rotatable=0;labelPosition=right;points=[];portConstraint=eastwest;rounded=1;shadow=1;glass=1;sketch=1;fontFamily=Helvetica;fontSize=12;fontColor=default;startSize=26;" vertex="1" parent="qQBRJ47vKQDhWzbW-TcR-252">
          <mxGeometry y="52" width="160" height="8" as="geometry" />
        </mxCell>
        <mxCell id="qQBRJ47vKQDhWzbW-TcR-255" value="+ method(type): type" style="text;strokeColor=none;fillColor=none;align=left;verticalAlign=top;spacingLeft=4;spacingRight=4;overflow=hidden;rotatable=0;points=[[0,0.5],[1,0.5]];portConstraint=eastwest;rounded=1;shadow=1;glass=1;sketch=1;fontFamily=Helvetica;fontSize=12;fontColor=default;startSize=26;" vertex="1" parent="qQBRJ47vKQDhWzbW-TcR-252">
          <mxGeometry y="60" width="160" height="26" as="geometry" />
        </mxCell>
        <mxCell id="qQBRJ47vKQDhWzbW-TcR-256" value="SFICInfoVC" style="swimlane;fontStyle=1;align=center;verticalAlign=top;childLayout=stackLayout;horizontal=1;startSize=26;horizontalStack=0;resizeParent=1;resizeParentMax=0;resizeLast=0;collapsible=1;marginBottom=0;rounded=1;shadow=1;glass=1;sketch=1;fontFamily=Helvetica;fontSize=12;fontColor=default;strokeColor=default;strokeWidth=1;fillColor=default;" vertex="1" parent="WIyWlLk6GJQsqaUBKTNV-1">
          <mxGeometry x="2110" y="30" width="160" height="86" as="geometry" />
        </mxCell>
        <mxCell id="qQBRJ47vKQDhWzbW-TcR-257" value="+ field: type" style="text;strokeColor=none;fillColor=none;align=left;verticalAlign=top;spacingLeft=4;spacingRight=4;overflow=hidden;rotatable=0;points=[[0,0.5],[1,0.5]];portConstraint=eastwest;rounded=1;shadow=1;glass=1;sketch=1;fontFamily=Helvetica;fontSize=12;fontColor=default;startSize=26;" vertex="1" parent="qQBRJ47vKQDhWzbW-TcR-256">
          <mxGeometry y="26" width="160" height="26" as="geometry" />
        </mxCell>
        <mxCell id="qQBRJ47vKQDhWzbW-TcR-258" value="" style="line;strokeWidth=1;fillColor=none;align=left;verticalAlign=middle;spacingTop=-1;spacingLeft=3;spacingRight=3;rotatable=0;labelPosition=right;points=[];portConstraint=eastwest;rounded=1;shadow=1;glass=1;sketch=1;fontFamily=Helvetica;fontSize=12;fontColor=default;startSize=26;" vertex="1" parent="qQBRJ47vKQDhWzbW-TcR-256">
          <mxGeometry y="52" width="160" height="8" as="geometry" />
        </mxCell>
        <mxCell id="qQBRJ47vKQDhWzbW-TcR-259" value="+ method(type): type" style="text;strokeColor=none;fillColor=none;align=left;verticalAlign=top;spacingLeft=4;spacingRight=4;overflow=hidden;rotatable=0;points=[[0,0.5],[1,0.5]];portConstraint=eastwest;rounded=1;shadow=1;glass=1;sketch=1;fontFamily=Helvetica;fontSize=12;fontColor=default;startSize=26;" vertex="1" parent="qQBRJ47vKQDhWzbW-TcR-256">
          <mxGeometry y="60" width="160" height="26" as="geometry" />
        </mxCell>
        <mxCell id="qQBRJ47vKQDhWzbW-TcR-260" value="SFUpdateICVC" style="swimlane;fontStyle=1;align=center;verticalAlign=top;childLayout=stackLayout;horizontal=1;startSize=26;horizontalStack=0;resizeParent=1;resizeParentMax=0;resizeLast=0;collapsible=1;marginBottom=0;rounded=1;shadow=1;glass=1;sketch=1;fontFamily=Helvetica;fontSize=12;fontColor=default;strokeColor=default;strokeWidth=1;fillColor=default;" vertex="1" parent="WIyWlLk6GJQsqaUBKTNV-1">
          <mxGeometry x="910" y="30" width="160" height="86" as="geometry" />
        </mxCell>
        <mxCell id="qQBRJ47vKQDhWzbW-TcR-261" value="+ field: type" style="text;strokeColor=none;fillColor=none;align=left;verticalAlign=top;spacingLeft=4;spacingRight=4;overflow=hidden;rotatable=0;points=[[0,0.5],[1,0.5]];portConstraint=eastwest;rounded=1;shadow=1;glass=1;sketch=1;fontFamily=Helvetica;fontSize=12;fontColor=default;startSize=26;" vertex="1" parent="qQBRJ47vKQDhWzbW-TcR-260">
          <mxGeometry y="26" width="160" height="26" as="geometry" />
        </mxCell>
        <mxCell id="qQBRJ47vKQDhWzbW-TcR-262" value="" style="line;strokeWidth=1;fillColor=none;align=left;verticalAlign=middle;spacingTop=-1;spacingLeft=3;spacingRight=3;rotatable=0;labelPosition=right;points=[];portConstraint=eastwest;rounded=1;shadow=1;glass=1;sketch=1;fontFamily=Helvetica;fontSize=12;fontColor=default;startSize=26;" vertex="1" parent="qQBRJ47vKQDhWzbW-TcR-260">
          <mxGeometry y="52" width="160" height="8" as="geometry" />
        </mxCell>
        <mxCell id="qQBRJ47vKQDhWzbW-TcR-263" value="+ method(type): type" style="text;strokeColor=none;fillColor=none;align=left;verticalAlign=top;spacingLeft=4;spacingRight=4;overflow=hidden;rotatable=0;points=[[0,0.5],[1,0.5]];portConstraint=eastwest;rounded=1;shadow=1;glass=1;sketch=1;fontFamily=Helvetica;fontSize=12;fontColor=default;startSize=26;" vertex="1" parent="qQBRJ47vKQDhWzbW-TcR-260">
          <mxGeometry y="60" width="160" height="26" as="geometry" />
        </mxCell>
        <mxCell id="qQBRJ47vKQDhWzbW-TcR-264" value="SFStrategyConvertVC" style="swimlane;fontStyle=1;align=center;verticalAlign=top;childLayout=stackLayout;horizontal=1;startSize=26;horizontalStack=0;resizeParent=1;resizeParentMax=0;resizeLast=0;collapsible=1;marginBottom=0;rounded=1;shadow=1;glass=1;sketch=1;fontFamily=Helvetica;fontSize=12;fontColor=default;strokeColor=default;strokeWidth=1;fillColor=default;" vertex="1" parent="WIyWlLk6GJQsqaUBKTNV-1">
          <mxGeometry x="2115" y="730" width="250" height="86" as="geometry" />
        </mxCell>
        <mxCell id="qQBRJ47vKQDhWzbW-TcR-265" value="+ field: type" style="text;strokeColor=none;fillColor=none;align=left;verticalAlign=top;spacingLeft=4;spacingRight=4;overflow=hidden;rotatable=0;points=[[0,0.5],[1,0.5]];portConstraint=eastwest;rounded=1;shadow=1;glass=1;sketch=1;fontFamily=Helvetica;fontSize=12;fontColor=default;startSize=26;" vertex="1" parent="qQBRJ47vKQDhWzbW-TcR-264">
          <mxGeometry y="26" width="250" height="26" as="geometry" />
        </mxCell>
        <mxCell id="qQBRJ47vKQDhWzbW-TcR-266" value="" style="line;strokeWidth=1;fillColor=none;align=left;verticalAlign=middle;spacingTop=-1;spacingLeft=3;spacingRight=3;rotatable=0;labelPosition=right;points=[];portConstraint=eastwest;rounded=1;shadow=1;glass=1;sketch=1;fontFamily=Helvetica;fontSize=12;fontColor=default;startSize=26;" vertex="1" parent="qQBRJ47vKQDhWzbW-TcR-264">
          <mxGeometry y="52" width="250" height="8" as="geometry" />
        </mxCell>
        <mxCell id="qQBRJ47vKQDhWzbW-TcR-267" value="+ method(type): type" style="text;strokeColor=none;fillColor=none;align=left;verticalAlign=top;spacingLeft=4;spacingRight=4;overflow=hidden;rotatable=0;points=[[0,0.5],[1,0.5]];portConstraint=eastwest;rounded=1;shadow=1;glass=1;sketch=1;fontFamily=Helvetica;fontSize=12;fontColor=default;startSize=26;" vertex="1" parent="qQBRJ47vKQDhWzbW-TcR-264">
          <mxGeometry y="60" width="250" height="26" as="geometry" />
        </mxCell>
        <mxCell id="qQBRJ47vKQDhWzbW-TcR-273" value="SFStrategyInfoVC" style="swimlane;fontStyle=1;align=center;verticalAlign=top;childLayout=stackLayout;horizontal=1;startSize=26;horizontalStack=0;resizeParent=1;resizeParentMax=0;resizeLast=0;collapsible=1;marginBottom=0;rounded=1;shadow=1;glass=1;sketch=1;fontFamily=Helvetica;fontSize=12;fontColor=default;strokeColor=default;strokeWidth=1;fillColor=default;" vertex="1" parent="WIyWlLk6GJQsqaUBKTNV-1">
          <mxGeometry x="1330" y="40" width="160" height="86" as="geometry" />
        </mxCell>
        <mxCell id="qQBRJ47vKQDhWzbW-TcR-274" value="+ field: type" style="text;strokeColor=none;fillColor=none;align=left;verticalAlign=top;spacingLeft=4;spacingRight=4;overflow=hidden;rotatable=0;points=[[0,0.5],[1,0.5]];portConstraint=eastwest;rounded=1;shadow=1;glass=1;sketch=1;fontFamily=Helvetica;fontSize=12;fontColor=default;startSize=26;" vertex="1" parent="qQBRJ47vKQDhWzbW-TcR-273">
          <mxGeometry y="26" width="160" height="26" as="geometry" />
        </mxCell>
        <mxCell id="qQBRJ47vKQDhWzbW-TcR-275" value="" style="line;strokeWidth=1;fillColor=none;align=left;verticalAlign=middle;spacingTop=-1;spacingLeft=3;spacingRight=3;rotatable=0;labelPosition=right;points=[];portConstraint=eastwest;rounded=1;shadow=1;glass=1;sketch=1;fontFamily=Helvetica;fontSize=12;fontColor=default;startSize=26;" vertex="1" parent="qQBRJ47vKQDhWzbW-TcR-273">
          <mxGeometry y="52" width="160" height="8" as="geometry" />
        </mxCell>
        <mxCell id="qQBRJ47vKQDhWzbW-TcR-276" value="+ method(type): type" style="text;strokeColor=none;fillColor=none;align=left;verticalAlign=top;spacingLeft=4;spacingRight=4;overflow=hidden;rotatable=0;points=[[0,0.5],[1,0.5]];portConstraint=eastwest;rounded=1;shadow=1;glass=1;sketch=1;fontFamily=Helvetica;fontSize=12;fontColor=default;startSize=26;" vertex="1" parent="qQBRJ47vKQDhWzbW-TcR-273">
          <mxGeometry y="60" width="160" height="26" as="geometry" />
        </mxCell>
        <mxCell id="qQBRJ47vKQDhWzbW-TcR-277" value="Classname" style="swimlane;fontStyle=1;align=center;verticalAlign=top;childLayout=stackLayout;horizontal=1;startSize=26;horizontalStack=0;resizeParent=1;resizeParentMax=0;resizeLast=0;collapsible=1;marginBottom=0;rounded=1;shadow=1;glass=1;sketch=1;fontFamily=Helvetica;fontSize=12;fontColor=default;strokeColor=default;strokeWidth=1;fillColor=default;" vertex="1" parent="WIyWlLk6GJQsqaUBKTNV-1">
          <mxGeometry x="1810" y="30" width="160" height="86" as="geometry" />
        </mxCell>
        <mxCell id="qQBRJ47vKQDhWzbW-TcR-278" value="+ field: type" style="text;strokeColor=none;fillColor=none;align=left;verticalAlign=top;spacingLeft=4;spacingRight=4;overflow=hidden;rotatable=0;points=[[0,0.5],[1,0.5]];portConstraint=eastwest;rounded=1;shadow=1;glass=1;sketch=1;fontFamily=Helvetica;fontSize=12;fontColor=default;startSize=26;" vertex="1" parent="qQBRJ47vKQDhWzbW-TcR-277">
          <mxGeometry y="26" width="160" height="26" as="geometry" />
        </mxCell>
        <mxCell id="qQBRJ47vKQDhWzbW-TcR-279" value="" style="line;strokeWidth=1;fillColor=none;align=left;verticalAlign=middle;spacingTop=-1;spacingLeft=3;spacingRight=3;rotatable=0;labelPosition=right;points=[];portConstraint=eastwest;rounded=1;shadow=1;glass=1;sketch=1;fontFamily=Helvetica;fontSize=12;fontColor=default;startSize=26;" vertex="1" parent="qQBRJ47vKQDhWzbW-TcR-277">
          <mxGeometry y="52" width="160" height="8" as="geometry" />
        </mxCell>
        <mxCell id="qQBRJ47vKQDhWzbW-TcR-280" value="+ method(type): type" style="text;strokeColor=none;fillColor=none;align=left;verticalAlign=top;spacingLeft=4;spacingRight=4;overflow=hidden;rotatable=0;points=[[0,0.5],[1,0.5]];portConstraint=eastwest;rounded=1;shadow=1;glass=1;sketch=1;fontFamily=Helvetica;fontSize=12;fontColor=default;startSize=26;" vertex="1" parent="qQBRJ47vKQDhWzbW-TcR-277">
          <mxGeometry y="60" width="160" height="26" as="geometry" />
        </mxCell>
        <mxCell id="qQBRJ47vKQDhWzbW-TcR-281" value="SFStrategyTransactionComponetVC" style="swimlane;fontStyle=1;align=center;verticalAlign=top;childLayout=stackLayout;horizontal=1;startSize=26;horizontalStack=0;resizeParent=1;resizeParentMax=0;resizeLast=0;collapsible=1;marginBottom=0;rounded=1;shadow=1;glass=1;sketch=1;fontFamily=Helvetica;fontSize=12;fontColor=default;strokeColor=default;strokeWidth=1;fillColor=default;arcSize=0;" vertex="1" parent="WIyWlLk6GJQsqaUBKTNV-1">
          <mxGeometry x="250" y="1540" width="280" height="86" as="geometry" />
        </mxCell>
        <mxCell id="qQBRJ47vKQDhWzbW-TcR-282" value="+ field: type" style="text;strokeColor=none;fillColor=none;align=left;verticalAlign=top;spacingLeft=4;spacingRight=4;overflow=hidden;rotatable=0;points=[[0,0.5],[1,0.5]];portConstraint=eastwest;rounded=1;shadow=1;glass=1;sketch=1;fontFamily=Helvetica;fontSize=12;fontColor=default;startSize=26;" vertex="1" parent="qQBRJ47vKQDhWzbW-TcR-281">
          <mxGeometry y="26" width="280" height="26" as="geometry" />
        </mxCell>
        <mxCell id="qQBRJ47vKQDhWzbW-TcR-283" value="" style="line;strokeWidth=1;fillColor=none;align=left;verticalAlign=middle;spacingTop=-1;spacingLeft=3;spacingRight=3;rotatable=0;labelPosition=right;points=[];portConstraint=eastwest;rounded=1;shadow=1;glass=1;sketch=1;fontFamily=Helvetica;fontSize=12;fontColor=default;startSize=26;" vertex="1" parent="qQBRJ47vKQDhWzbW-TcR-281">
          <mxGeometry y="52" width="280" height="8" as="geometry" />
        </mxCell>
        <mxCell id="qQBRJ47vKQDhWzbW-TcR-284" value="+ method(type): type" style="text;strokeColor=none;fillColor=none;align=left;verticalAlign=top;spacingLeft=4;spacingRight=4;overflow=hidden;rotatable=0;points=[[0,0.5],[1,0.5]];portConstraint=eastwest;rounded=1;shadow=1;glass=1;sketch=1;fontFamily=Helvetica;fontSize=12;fontColor=default;startSize=26;" vertex="1" parent="qQBRJ47vKQDhWzbW-TcR-281">
          <mxGeometry y="60" width="280" height="26" as="geometry" />
        </mxCell>
        <mxCell id="qQBRJ47vKQDhWzbW-TcR-383" style="edgeStyle=orthogonalEdgeStyle;rounded=0;orthogonalLoop=1;jettySize=auto;html=1;exitX=0.5;exitY=0;exitDx=0;exitDy=0;fontFamily=Helvetica;fontSize=12;fontColor=default;startSize=26;" edge="1" parent="WIyWlLk6GJQsqaUBKTNV-1" source="qQBRJ47vKQDhWzbW-TcR-285">
          <mxGeometry relative="1" as="geometry">
            <mxPoint x="1270" y="1360" as="targetPoint" />
          </mxGeometry>
        </mxCell>
        <mxCell id="qQBRJ47vKQDhWzbW-TcR-285" value="Classname" style="swimlane;fontStyle=1;align=center;verticalAlign=top;childLayout=stackLayout;horizontal=1;startSize=26;horizontalStack=0;resizeParent=1;resizeParentMax=0;resizeLast=0;collapsible=1;marginBottom=0;rounded=1;shadow=1;glass=1;sketch=1;fontFamily=Helvetica;fontSize=12;fontColor=default;strokeColor=default;strokeWidth=1;fillColor=default;" vertex="1" parent="WIyWlLk6GJQsqaUBKTNV-1">
          <mxGeometry x="2110" y="1750" width="160" height="86" as="geometry" />
        </mxCell>
        <mxCell id="qQBRJ47vKQDhWzbW-TcR-286" value="+ field: type" style="text;strokeColor=none;fillColor=none;align=left;verticalAlign=top;spacingLeft=4;spacingRight=4;overflow=hidden;rotatable=0;points=[[0,0.5],[1,0.5]];portConstraint=eastwest;rounded=1;shadow=1;glass=1;sketch=1;fontFamily=Helvetica;fontSize=12;fontColor=default;startSize=26;" vertex="1" parent="qQBRJ47vKQDhWzbW-TcR-285">
          <mxGeometry y="26" width="160" height="26" as="geometry" />
        </mxCell>
        <mxCell id="qQBRJ47vKQDhWzbW-TcR-287" value="" style="line;strokeWidth=1;fillColor=none;align=left;verticalAlign=middle;spacingTop=-1;spacingLeft=3;spacingRight=3;rotatable=0;labelPosition=right;points=[];portConstraint=eastwest;rounded=1;shadow=1;glass=1;sketch=1;fontFamily=Helvetica;fontSize=12;fontColor=default;startSize=26;" vertex="1" parent="qQBRJ47vKQDhWzbW-TcR-285">
          <mxGeometry y="52" width="160" height="8" as="geometry" />
        </mxCell>
        <mxCell id="qQBRJ47vKQDhWzbW-TcR-288" value="+ method(type): type" style="text;strokeColor=none;fillColor=none;align=left;verticalAlign=top;spacingLeft=4;spacingRight=4;overflow=hidden;rotatable=0;points=[[0,0.5],[1,0.5]];portConstraint=eastwest;rounded=1;shadow=1;glass=1;sketch=1;fontFamily=Helvetica;fontSize=12;fontColor=default;startSize=26;" vertex="1" parent="qQBRJ47vKQDhWzbW-TcR-285">
          <mxGeometry y="60" width="160" height="26" as="geometry" />
        </mxCell>
        <mxCell id="qQBRJ47vKQDhWzbW-TcR-381" style="edgeStyle=orthogonalEdgeStyle;rounded=0;orthogonalLoop=1;jettySize=auto;html=1;exitX=0.5;exitY=0;exitDx=0;exitDy=0;fontFamily=Helvetica;fontSize=12;fontColor=default;startSize=26;" edge="1" parent="WIyWlLk6GJQsqaUBKTNV-1" source="qQBRJ47vKQDhWzbW-TcR-289">
          <mxGeometry relative="1" as="geometry">
            <mxPoint x="1270" y="1360" as="targetPoint" />
          </mxGeometry>
        </mxCell>
        <mxCell id="qQBRJ47vKQDhWzbW-TcR-289" value="SFVipStrategyInfoVC" style="swimlane;fontStyle=1;align=center;verticalAlign=top;childLayout=stackLayout;horizontal=1;startSize=26;horizontalStack=0;resizeParent=1;resizeParentMax=0;resizeLast=0;collapsible=1;marginBottom=0;rounded=1;shadow=1;glass=1;sketch=1;fontFamily=Helvetica;fontSize=12;fontColor=default;strokeColor=default;strokeWidth=1;fillColor=default;" vertex="1" parent="WIyWlLk6GJQsqaUBKTNV-1">
          <mxGeometry x="1560" y="1750" width="160" height="86" as="geometry" />
        </mxCell>
        <mxCell id="qQBRJ47vKQDhWzbW-TcR-290" value="+ field: type" style="text;strokeColor=none;fillColor=none;align=left;verticalAlign=top;spacingLeft=4;spacingRight=4;overflow=hidden;rotatable=0;points=[[0,0.5],[1,0.5]];portConstraint=eastwest;rounded=1;shadow=1;glass=1;sketch=1;fontFamily=Helvetica;fontSize=12;fontColor=default;startSize=26;" vertex="1" parent="qQBRJ47vKQDhWzbW-TcR-289">
          <mxGeometry y="26" width="160" height="26" as="geometry" />
        </mxCell>
        <mxCell id="qQBRJ47vKQDhWzbW-TcR-291" value="" style="line;strokeWidth=1;fillColor=none;align=left;verticalAlign=middle;spacingTop=-1;spacingLeft=3;spacingRight=3;rotatable=0;labelPosition=right;points=[];portConstraint=eastwest;rounded=1;shadow=1;glass=1;sketch=1;fontFamily=Helvetica;fontSize=12;fontColor=default;startSize=26;" vertex="1" parent="qQBRJ47vKQDhWzbW-TcR-289">
          <mxGeometry y="52" width="160" height="8" as="geometry" />
        </mxCell>
        <mxCell id="qQBRJ47vKQDhWzbW-TcR-292" value="+ method(type): type" style="text;strokeColor=none;fillColor=none;align=left;verticalAlign=top;spacingLeft=4;spacingRight=4;overflow=hidden;rotatable=0;points=[[0,0.5],[1,0.5]];portConstraint=eastwest;rounded=1;shadow=1;glass=1;sketch=1;fontFamily=Helvetica;fontSize=12;fontColor=default;startSize=26;" vertex="1" parent="qQBRJ47vKQDhWzbW-TcR-289">
          <mxGeometry y="60" width="160" height="26" as="geometry" />
        </mxCell>
        <mxCell id="qQBRJ47vKQDhWzbW-TcR-293" value="SFStrategyProvisionVC" style="swimlane;fontStyle=1;align=center;verticalAlign=top;childLayout=stackLayout;horizontal=1;startSize=26;horizontalStack=0;resizeParent=1;resizeParentMax=0;resizeLast=0;collapsible=1;marginBottom=0;rounded=1;shadow=1;glass=1;sketch=1;fontFamily=Helvetica;fontSize=12;fontColor=default;strokeColor=default;strokeWidth=1;fillColor=default;" vertex="1" parent="WIyWlLk6GJQsqaUBKTNV-1">
          <mxGeometry x="1120" y="30" width="160" height="86" as="geometry" />
        </mxCell>
        <mxCell id="qQBRJ47vKQDhWzbW-TcR-294" value="+ field: type" style="text;strokeColor=none;fillColor=none;align=left;verticalAlign=top;spacingLeft=4;spacingRight=4;overflow=hidden;rotatable=0;points=[[0,0.5],[1,0.5]];portConstraint=eastwest;rounded=1;shadow=1;glass=1;sketch=1;fontFamily=Helvetica;fontSize=12;fontColor=default;startSize=26;" vertex="1" parent="qQBRJ47vKQDhWzbW-TcR-293">
          <mxGeometry y="26" width="160" height="26" as="geometry" />
        </mxCell>
        <mxCell id="qQBRJ47vKQDhWzbW-TcR-295" value="" style="line;strokeWidth=1;fillColor=none;align=left;verticalAlign=middle;spacingTop=-1;spacingLeft=3;spacingRight=3;rotatable=0;labelPosition=right;points=[];portConstraint=eastwest;rounded=1;shadow=1;glass=1;sketch=1;fontFamily=Helvetica;fontSize=12;fontColor=default;startSize=26;" vertex="1" parent="qQBRJ47vKQDhWzbW-TcR-293">
          <mxGeometry y="52" width="160" height="8" as="geometry" />
        </mxCell>
        <mxCell id="qQBRJ47vKQDhWzbW-TcR-296" value="+ method(type): type" style="text;strokeColor=none;fillColor=none;align=left;verticalAlign=top;spacingLeft=4;spacingRight=4;overflow=hidden;rotatable=0;points=[[0,0.5],[1,0.5]];portConstraint=eastwest;rounded=1;shadow=1;glass=1;sketch=1;fontFamily=Helvetica;fontSize=12;fontColor=default;startSize=26;" vertex="1" parent="qQBRJ47vKQDhWzbW-TcR-293">
          <mxGeometry y="60" width="160" height="26" as="geometry" />
        </mxCell>
        <mxCell id="qQBRJ47vKQDhWzbW-TcR-297" value="SFRebalanceSyncVC" style="swimlane;fontStyle=1;align=center;verticalAlign=top;childLayout=stackLayout;horizontal=1;startSize=26;horizontalStack=0;resizeParent=1;resizeParentMax=0;resizeLast=0;collapsible=1;marginBottom=0;rounded=1;shadow=1;glass=1;sketch=1;fontFamily=Helvetica;fontSize=12;fontColor=default;strokeColor=default;strokeWidth=1;fillColor=default;" vertex="1" parent="WIyWlLk6GJQsqaUBKTNV-1">
          <mxGeometry x="305" y="1190" width="160" height="86" as="geometry" />
        </mxCell>
        <mxCell id="qQBRJ47vKQDhWzbW-TcR-298" value="+ field: type" style="text;strokeColor=none;fillColor=none;align=left;verticalAlign=top;spacingLeft=4;spacingRight=4;overflow=hidden;rotatable=0;points=[[0,0.5],[1,0.5]];portConstraint=eastwest;rounded=1;shadow=1;glass=1;sketch=1;fontFamily=Helvetica;fontSize=12;fontColor=default;startSize=26;" vertex="1" parent="qQBRJ47vKQDhWzbW-TcR-297">
          <mxGeometry y="26" width="160" height="26" as="geometry" />
        </mxCell>
        <mxCell id="qQBRJ47vKQDhWzbW-TcR-299" value="" style="line;strokeWidth=1;fillColor=none;align=left;verticalAlign=middle;spacingTop=-1;spacingLeft=3;spacingRight=3;rotatable=0;labelPosition=right;points=[];portConstraint=eastwest;rounded=1;shadow=1;glass=1;sketch=1;fontFamily=Helvetica;fontSize=12;fontColor=default;startSize=26;" vertex="1" parent="qQBRJ47vKQDhWzbW-TcR-297">
          <mxGeometry y="52" width="160" height="8" as="geometry" />
        </mxCell>
        <mxCell id="qQBRJ47vKQDhWzbW-TcR-300" value="+ method(type): type" style="text;strokeColor=none;fillColor=none;align=left;verticalAlign=top;spacingLeft=4;spacingRight=4;overflow=hidden;rotatable=0;points=[[0,0.5],[1,0.5]];portConstraint=eastwest;rounded=1;shadow=1;glass=1;sketch=1;fontFamily=Helvetica;fontSize=12;fontColor=default;startSize=26;" vertex="1" parent="qQBRJ47vKQDhWzbW-TcR-297">
          <mxGeometry y="60" width="160" height="26" as="geometry" />
        </mxCell>
        <mxCell id="qQBRJ47vKQDhWzbW-TcR-382" style="edgeStyle=orthogonalEdgeStyle;rounded=0;orthogonalLoop=1;jettySize=auto;html=1;exitX=0.5;exitY=0;exitDx=0;exitDy=0;fontFamily=Helvetica;fontSize=12;fontColor=default;startSize=26;" edge="1" parent="WIyWlLk6GJQsqaUBKTNV-1" source="qQBRJ47vKQDhWzbW-TcR-301">
          <mxGeometry relative="1" as="geometry">
            <mxPoint x="1270" y="1360" as="targetPoint" />
          </mxGeometry>
        </mxCell>
        <mxCell id="qQBRJ47vKQDhWzbW-TcR-301" value="SFStrategySynVC" style="swimlane;fontStyle=1;align=center;verticalAlign=top;childLayout=stackLayout;horizontal=1;startSize=26;horizontalStack=0;resizeParent=1;resizeParentMax=0;resizeLast=0;collapsible=1;marginBottom=0;rounded=1;shadow=1;glass=1;sketch=1;fontFamily=Helvetica;fontSize=12;fontColor=default;strokeColor=default;strokeWidth=1;fillColor=default;" vertex="1" parent="WIyWlLk6GJQsqaUBKTNV-1">
          <mxGeometry x="1820" y="1750" width="160" height="86" as="geometry" />
        </mxCell>
        <mxCell id="qQBRJ47vKQDhWzbW-TcR-302" value="+ field: type" style="text;strokeColor=none;fillColor=none;align=left;verticalAlign=top;spacingLeft=4;spacingRight=4;overflow=hidden;rotatable=0;points=[[0,0.5],[1,0.5]];portConstraint=eastwest;rounded=1;shadow=1;glass=1;sketch=1;fontFamily=Helvetica;fontSize=12;fontColor=default;startSize=26;" vertex="1" parent="qQBRJ47vKQDhWzbW-TcR-301">
          <mxGeometry y="26" width="160" height="26" as="geometry" />
        </mxCell>
        <mxCell id="qQBRJ47vKQDhWzbW-TcR-303" value="" style="line;strokeWidth=1;fillColor=none;align=left;verticalAlign=middle;spacingTop=-1;spacingLeft=3;spacingRight=3;rotatable=0;labelPosition=right;points=[];portConstraint=eastwest;rounded=1;shadow=1;glass=1;sketch=1;fontFamily=Helvetica;fontSize=12;fontColor=default;startSize=26;" vertex="1" parent="qQBRJ47vKQDhWzbW-TcR-301">
          <mxGeometry y="52" width="160" height="8" as="geometry" />
        </mxCell>
        <mxCell id="qQBRJ47vKQDhWzbW-TcR-304" value="+ method(type): type" style="text;strokeColor=none;fillColor=none;align=left;verticalAlign=top;spacingLeft=4;spacingRight=4;overflow=hidden;rotatable=0;points=[[0,0.5],[1,0.5]];portConstraint=eastwest;rounded=1;shadow=1;glass=1;sketch=1;fontFamily=Helvetica;fontSize=12;fontColor=default;startSize=26;" vertex="1" parent="qQBRJ47vKQDhWzbW-TcR-301">
          <mxGeometry y="60" width="160" height="26" as="geometry" />
        </mxCell>
        <mxCell id="qQBRJ47vKQDhWzbW-TcR-384" style="edgeStyle=orthogonalEdgeStyle;rounded=0;orthogonalLoop=1;jettySize=auto;html=1;exitX=0.5;exitY=0;exitDx=0;exitDy=0;fontFamily=Helvetica;fontSize=12;fontColor=default;startSize=26;" edge="1" parent="WIyWlLk6GJQsqaUBKTNV-1" source="qQBRJ47vKQDhWzbW-TcR-305">
          <mxGeometry relative="1" as="geometry">
            <mxPoint x="1270" y="1360" as="targetPoint" />
          </mxGeometry>
        </mxCell>
        <mxCell id="qQBRJ47vKQDhWzbW-TcR-305" value="SFTransactionVolumeAdjustVC" style="swimlane;fontStyle=1;align=center;verticalAlign=top;childLayout=stackLayout;horizontal=1;startSize=26;horizontalStack=0;resizeParent=1;resizeParentMax=0;resizeLast=0;collapsible=1;marginBottom=0;rounded=1;shadow=1;glass=1;sketch=1;fontFamily=Helvetica;fontSize=12;fontColor=default;strokeColor=default;strokeWidth=1;fillColor=default;" vertex="1" parent="WIyWlLk6GJQsqaUBKTNV-1">
          <mxGeometry x="2125" y="1570" width="260" height="86" as="geometry" />
        </mxCell>
        <mxCell id="qQBRJ47vKQDhWzbW-TcR-306" value="+ field: type" style="text;strokeColor=none;fillColor=none;align=left;verticalAlign=top;spacingLeft=4;spacingRight=4;overflow=hidden;rotatable=0;points=[[0,0.5],[1,0.5]];portConstraint=eastwest;rounded=1;shadow=1;glass=1;sketch=1;fontFamily=Helvetica;fontSize=12;fontColor=default;startSize=26;" vertex="1" parent="qQBRJ47vKQDhWzbW-TcR-305">
          <mxGeometry y="26" width="260" height="26" as="geometry" />
        </mxCell>
        <mxCell id="qQBRJ47vKQDhWzbW-TcR-307" value="" style="line;strokeWidth=1;fillColor=none;align=left;verticalAlign=middle;spacingTop=-1;spacingLeft=3;spacingRight=3;rotatable=0;labelPosition=right;points=[];portConstraint=eastwest;rounded=1;shadow=1;glass=1;sketch=1;fontFamily=Helvetica;fontSize=12;fontColor=default;startSize=26;" vertex="1" parent="qQBRJ47vKQDhWzbW-TcR-305">
          <mxGeometry y="52" width="260" height="8" as="geometry" />
        </mxCell>
        <mxCell id="qQBRJ47vKQDhWzbW-TcR-308" value="+ method(type): type" style="text;strokeColor=none;fillColor=none;align=left;verticalAlign=top;spacingLeft=4;spacingRight=4;overflow=hidden;rotatable=0;points=[[0,0.5],[1,0.5]];portConstraint=eastwest;rounded=1;shadow=1;glass=1;sketch=1;fontFamily=Helvetica;fontSize=12;fontColor=default;startSize=26;" vertex="1" parent="qQBRJ47vKQDhWzbW-TcR-305">
          <mxGeometry y="60" width="260" height="26" as="geometry" />
        </mxCell>
        <mxCell id="qQBRJ47vKQDhWzbW-TcR-368" style="edgeStyle=orthogonalEdgeStyle;rounded=0;orthogonalLoop=1;jettySize=auto;html=1;exitX=0.5;exitY=0;exitDx=0;exitDy=0;fontFamily=Helvetica;fontSize=12;fontColor=default;startSize=26;" edge="1" parent="WIyWlLk6GJQsqaUBKTNV-1" source="qQBRJ47vKQDhWzbW-TcR-321">
          <mxGeometry relative="1" as="geometry">
            <mxPoint x="1270" y="1360" as="targetPoint" />
          </mxGeometry>
        </mxCell>
        <mxCell id="qQBRJ47vKQDhWzbW-TcR-321" value="SFTransactionInputVC" style="swimlane;fontStyle=1;align=center;verticalAlign=top;childLayout=stackLayout;horizontal=1;startSize=26;horizontalStack=0;resizeParent=1;resizeParentMax=0;resizeLast=0;collapsible=1;marginBottom=0;rounded=1;shadow=1;glass=1;sketch=1;fontFamily=Helvetica;fontSize=12;fontColor=default;strokeColor=default;strokeWidth=1;fillColor=default;" vertex="1" parent="WIyWlLk6GJQsqaUBKTNV-1">
          <mxGeometry x="1290" y="1750" width="190" height="86" as="geometry" />
        </mxCell>
        <mxCell id="qQBRJ47vKQDhWzbW-TcR-322" value="+ field: type" style="text;strokeColor=none;fillColor=none;align=left;verticalAlign=top;spacingLeft=4;spacingRight=4;overflow=hidden;rotatable=0;points=[[0,0.5],[1,0.5]];portConstraint=eastwest;rounded=1;shadow=1;glass=1;sketch=1;fontFamily=Helvetica;fontSize=12;fontColor=default;startSize=26;" vertex="1" parent="qQBRJ47vKQDhWzbW-TcR-321">
          <mxGeometry y="26" width="190" height="26" as="geometry" />
        </mxCell>
        <mxCell id="qQBRJ47vKQDhWzbW-TcR-323" value="" style="line;strokeWidth=1;fillColor=none;align=left;verticalAlign=middle;spacingTop=-1;spacingLeft=3;spacingRight=3;rotatable=0;labelPosition=right;points=[];portConstraint=eastwest;rounded=1;shadow=1;glass=1;sketch=1;fontFamily=Helvetica;fontSize=12;fontColor=default;startSize=26;" vertex="1" parent="qQBRJ47vKQDhWzbW-TcR-321">
          <mxGeometry y="52" width="190" height="8" as="geometry" />
        </mxCell>
        <mxCell id="qQBRJ47vKQDhWzbW-TcR-324" value="+ method(type): type" style="text;strokeColor=none;fillColor=none;align=left;verticalAlign=top;spacingLeft=4;spacingRight=4;overflow=hidden;rotatable=0;points=[[0,0.5],[1,0.5]];portConstraint=eastwest;rounded=1;shadow=1;glass=1;sketch=1;fontFamily=Helvetica;fontSize=12;fontColor=default;startSize=26;" vertex="1" parent="qQBRJ47vKQDhWzbW-TcR-321">
          <mxGeometry y="60" width="190" height="26" as="geometry" />
        </mxCell>
        <mxCell id="qQBRJ47vKQDhWzbW-TcR-372" style="edgeStyle=orthogonalEdgeStyle;rounded=0;orthogonalLoop=1;jettySize=auto;html=1;exitX=0.5;exitY=0;exitDx=0;exitDy=0;fontFamily=Helvetica;fontSize=12;fontColor=default;startSize=26;" edge="1" parent="WIyWlLk6GJQsqaUBKTNV-1" source="qQBRJ47vKQDhWzbW-TcR-325">
          <mxGeometry relative="1" as="geometry">
            <mxPoint x="850" y="1580" as="targetPoint" />
          </mxGeometry>
        </mxCell>
        <mxCell id="qQBRJ47vKQDhWzbW-TcR-325" value="SFTransactionOrderComponentVC" style="swimlane;fontStyle=1;align=center;verticalAlign=top;childLayout=stackLayout;horizontal=1;startSize=26;horizontalStack=0;resizeParent=1;resizeParentMax=0;resizeLast=0;collapsible=1;marginBottom=0;rounded=1;shadow=1;glass=1;sketch=1;fontFamily=Helvetica;fontSize=12;fontColor=default;strokeColor=default;strokeWidth=1;fillColor=default;" vertex="1" parent="WIyWlLk6GJQsqaUBKTNV-1">
          <mxGeometry x="270" y="1740" width="280" height="86" as="geometry" />
        </mxCell>
        <mxCell id="qQBRJ47vKQDhWzbW-TcR-326" value="+ field: type" style="text;strokeColor=none;fillColor=none;align=left;verticalAlign=top;spacingLeft=4;spacingRight=4;overflow=hidden;rotatable=0;points=[[0,0.5],[1,0.5]];portConstraint=eastwest;rounded=1;shadow=1;glass=1;sketch=1;fontFamily=Helvetica;fontSize=12;fontColor=default;startSize=26;" vertex="1" parent="qQBRJ47vKQDhWzbW-TcR-325">
          <mxGeometry y="26" width="280" height="26" as="geometry" />
        </mxCell>
        <mxCell id="qQBRJ47vKQDhWzbW-TcR-327" value="" style="line;strokeWidth=1;fillColor=none;align=left;verticalAlign=middle;spacingTop=-1;spacingLeft=3;spacingRight=3;rotatable=0;labelPosition=right;points=[];portConstraint=eastwest;rounded=1;shadow=1;glass=1;sketch=1;fontFamily=Helvetica;fontSize=12;fontColor=default;startSize=26;" vertex="1" parent="qQBRJ47vKQDhWzbW-TcR-325">
          <mxGeometry y="52" width="280" height="8" as="geometry" />
        </mxCell>
        <mxCell id="qQBRJ47vKQDhWzbW-TcR-328" value="+ method(type): type" style="text;strokeColor=none;fillColor=none;align=left;verticalAlign=top;spacingLeft=4;spacingRight=4;overflow=hidden;rotatable=0;points=[[0,0.5],[1,0.5]];portConstraint=eastwest;rounded=1;shadow=1;glass=1;sketch=1;fontFamily=Helvetica;fontSize=12;fontColor=default;startSize=26;" vertex="1" parent="qQBRJ47vKQDhWzbW-TcR-325">
          <mxGeometry y="60" width="280" height="26" as="geometry" />
        </mxCell>
        <mxCell id="qQBRJ47vKQDhWzbW-TcR-351" style="edgeStyle=orthogonalEdgeStyle;rounded=0;orthogonalLoop=1;jettySize=auto;html=1;exitX=1;exitY=0;exitDx=0;exitDy=0;exitPerimeter=0;entryX=0.88;entryY=-0.037;entryDx=0;entryDy=0;entryPerimeter=0;fontFamily=Helvetica;fontSize=12;fontColor=default;startSize=26;" edge="1" parent="WIyWlLk6GJQsqaUBKTNV-1" source="qQBRJ47vKQDhWzbW-TcR-161" target="qQBRJ47vKQDhWzbW-TcR-161">
          <mxGeometry relative="1" as="geometry" />
        </mxCell>
        <mxCell id="qQBRJ47vKQDhWzbW-TcR-373" style="edgeStyle=orthogonalEdgeStyle;rounded=0;orthogonalLoop=1;jettySize=auto;html=1;exitX=1;exitY=0.5;exitDx=0;exitDy=0;fontFamily=Helvetica;fontSize=12;fontColor=default;startSize=26;" edge="1" parent="WIyWlLk6GJQsqaUBKTNV-1" source="qQBRJ47vKQDhWzbW-TcR-282">
          <mxGeometry relative="1" as="geometry">
            <mxPoint x="850" y="1560" as="targetPoint" />
          </mxGeometry>
        </mxCell>
        <mxCell id="qQBRJ47vKQDhWzbW-TcR-374" style="edgeStyle=orthogonalEdgeStyle;rounded=0;orthogonalLoop=1;jettySize=auto;html=1;exitX=1;exitY=0.5;exitDx=0;exitDy=0;fontFamily=Helvetica;fontSize=12;fontColor=default;startSize=26;" edge="1" parent="WIyWlLk6GJQsqaUBKTNV-1" source="qQBRJ47vKQDhWzbW-TcR-167">
          <mxGeometry relative="1" as="geometry">
            <mxPoint x="1270" y="1410" as="targetPoint" />
          </mxGeometry>
        </mxCell>
        <mxCell id="qQBRJ47vKQDhWzbW-TcR-375" style="edgeStyle=orthogonalEdgeStyle;rounded=0;orthogonalLoop=1;jettySize=auto;html=1;exitX=1;exitY=0.5;exitDx=0;exitDy=0;entryX=0.004;entryY=0.769;entryDx=0;entryDy=0;entryPerimeter=0;fontFamily=Helvetica;fontSize=12;fontColor=default;startSize=26;" edge="1" parent="WIyWlLk6GJQsqaUBKTNV-1" source="qQBRJ47vKQDhWzbW-TcR-298" target="zkfFHV4jXpPFQw0GAbJ--1">
          <mxGeometry relative="1" as="geometry" />
        </mxCell>
        <mxCell id="qQBRJ47vKQDhWzbW-TcR-376" style="edgeStyle=orthogonalEdgeStyle;rounded=0;orthogonalLoop=1;jettySize=auto;html=1;exitX=1;exitY=0.5;exitDx=0;exitDy=0;entryX=0.014;entryY=-0.123;entryDx=0;entryDy=0;entryPerimeter=0;fontFamily=Helvetica;fontSize=12;fontColor=default;startSize=26;" edge="1" parent="WIyWlLk6GJQsqaUBKTNV-1" source="qQBRJ47vKQDhWzbW-TcR-162" target="qQBRJ47vKQDhWzbW-TcR-87">
          <mxGeometry relative="1" as="geometry" />
        </mxCell>
        <mxCell id="qQBRJ47vKQDhWzbW-TcR-378" style="edgeStyle=orthogonalEdgeStyle;rounded=0;orthogonalLoop=1;jettySize=auto;html=1;exitX=1;exitY=0.5;exitDx=0;exitDy=0;entryX=0.48;entryY=-0.004;entryDx=0;entryDy=0;entryPerimeter=0;fontFamily=Helvetica;fontSize=12;fontColor=default;startSize=26;" edge="1" parent="WIyWlLk6GJQsqaUBKTNV-1" source="qQBRJ47vKQDhWzbW-TcR-175" target="zkfFHV4jXpPFQw0GAbJ--0">
          <mxGeometry relative="1" as="geometry" />
        </mxCell>
        <mxCell id="qQBRJ47vKQDhWzbW-TcR-380" style="edgeStyle=orthogonalEdgeStyle;rounded=0;orthogonalLoop=1;jettySize=auto;html=1;exitX=1;exitY=0.5;exitDx=0;exitDy=0;entryX=0.5;entryY=0;entryDx=0;entryDy=0;fontFamily=Helvetica;fontSize=12;fontColor=default;startSize=26;" edge="1" parent="WIyWlLk6GJQsqaUBKTNV-1" source="qQBRJ47vKQDhWzbW-TcR-187" target="zkfFHV4jXpPFQw0GAbJ--0">
          <mxGeometry relative="1" as="geometry" />
        </mxCell>
        <mxCell id="qQBRJ47vKQDhWzbW-TcR-385" style="edgeStyle=orthogonalEdgeStyle;rounded=0;orthogonalLoop=1;jettySize=auto;html=1;exitX=0;exitY=0.5;exitDx=0;exitDy=0;fontFamily=Helvetica;fontSize=12;fontColor=default;startSize=26;" edge="1" parent="WIyWlLk6GJQsqaUBKTNV-1" source="qQBRJ47vKQDhWzbW-TcR-216">
          <mxGeometry relative="1" as="geometry">
            <mxPoint x="1270" y="1360" as="targetPoint" />
          </mxGeometry>
        </mxCell>
        <mxCell id="qQBRJ47vKQDhWzbW-TcR-386" style="edgeStyle=orthogonalEdgeStyle;rounded=0;orthogonalLoop=1;jettySize=auto;html=1;exitX=0;exitY=0.5;exitDx=0;exitDy=0;fontFamily=Helvetica;fontSize=12;fontColor=default;startSize=26;" edge="1" parent="WIyWlLk6GJQsqaUBKTNV-1" source="qQBRJ47vKQDhWzbW-TcR-220" target="qQBRJ47vKQDhWzbW-TcR-87">
          <mxGeometry relative="1" as="geometry" />
        </mxCell>
        <mxCell id="qQBRJ47vKQDhWzbW-TcR-387" style="edgeStyle=orthogonalEdgeStyle;rounded=0;orthogonalLoop=1;jettySize=auto;html=1;exitX=0;exitY=0.5;exitDx=0;exitDy=0;entryX=0.986;entryY=0.971;entryDx=0;entryDy=0;entryPerimeter=0;fontFamily=Helvetica;fontSize=12;fontColor=default;startSize=26;" edge="1" parent="WIyWlLk6GJQsqaUBKTNV-1" source="qQBRJ47vKQDhWzbW-TcR-228" target="qQBRJ47vKQDhWzbW-TcR-78">
          <mxGeometry relative="1" as="geometry" />
        </mxCell>
        <mxCell id="qQBRJ47vKQDhWzbW-TcR-388" style="edgeStyle=orthogonalEdgeStyle;rounded=0;orthogonalLoop=1;jettySize=auto;html=1;exitX=0;exitY=0.5;exitDx=0;exitDy=0;entryX=1;entryY=0.5;entryDx=0;entryDy=0;fontFamily=Helvetica;fontSize=12;fontColor=default;startSize=26;" edge="1" parent="WIyWlLk6GJQsqaUBKTNV-1" source="qQBRJ47vKQDhWzbW-TcR-224" target="qQBRJ47vKQDhWzbW-TcR-78">
          <mxGeometry relative="1" as="geometry" />
        </mxCell>
        <mxCell id="qQBRJ47vKQDhWzbW-TcR-389" style="edgeStyle=orthogonalEdgeStyle;rounded=0;orthogonalLoop=1;jettySize=auto;html=1;exitX=0;exitY=0.5;exitDx=0;exitDy=0;fontFamily=Helvetica;fontSize=12;fontColor=default;startSize=26;" edge="1" parent="WIyWlLk6GJQsqaUBKTNV-1" source="qQBRJ47vKQDhWzbW-TcR-265">
          <mxGeometry relative="1" as="geometry">
            <mxPoint x="1280" y="840.0000000000002" as="targetPoint" />
          </mxGeometry>
        </mxCell>
        <mxCell id="qQBRJ47vKQDhWzbW-TcR-390" style="edgeStyle=orthogonalEdgeStyle;rounded=0;orthogonalLoop=1;jettySize=auto;html=1;exitX=0;exitY=0.5;exitDx=0;exitDy=0;fontFamily=Helvetica;fontSize=12;fontColor=default;startSize=26;" edge="1" parent="WIyWlLk6GJQsqaUBKTNV-1" source="qQBRJ47vKQDhWzbW-TcR-241">
          <mxGeometry relative="1" as="geometry">
            <mxPoint x="1280" y="700" as="targetPoint" />
          </mxGeometry>
        </mxCell>
        <mxCell id="qQBRJ47vKQDhWzbW-TcR-391" style="edgeStyle=orthogonalEdgeStyle;rounded=0;orthogonalLoop=1;jettySize=auto;html=1;exitX=0;exitY=0.5;exitDx=0;exitDy=0;fontFamily=Helvetica;fontSize=12;fontColor=default;startSize=26;" edge="1" parent="WIyWlLk6GJQsqaUBKTNV-1" source="qQBRJ47vKQDhWzbW-TcR-237">
          <mxGeometry relative="1" as="geometry">
            <mxPoint x="1280" y="660" as="targetPoint" />
          </mxGeometry>
        </mxCell>
        <mxCell id="qQBRJ47vKQDhWzbW-TcR-392" style="edgeStyle=orthogonalEdgeStyle;rounded=0;orthogonalLoop=1;jettySize=auto;html=1;exitX=0;exitY=0.5;exitDx=0;exitDy=0;fontFamily=Helvetica;fontSize=12;fontColor=default;startSize=26;" edge="1" parent="WIyWlLk6GJQsqaUBKTNV-1" source="qQBRJ47vKQDhWzbW-TcR-233">
          <mxGeometry relative="1" as="geometry">
            <mxPoint x="1280" y="490" as="targetPoint" />
          </mxGeometry>
        </mxCell>
        <mxCell id="qQBRJ47vKQDhWzbW-TcR-393" style="edgeStyle=orthogonalEdgeStyle;rounded=0;orthogonalLoop=1;jettySize=auto;html=1;exitX=0;exitY=0.5;exitDx=0;exitDy=0;fontFamily=Helvetica;fontSize=12;fontColor=default;startSize=26;" edge="1" parent="WIyWlLk6GJQsqaUBKTNV-1" source="qQBRJ47vKQDhWzbW-TcR-249">
          <mxGeometry relative="1" as="geometry">
            <mxPoint x="1280" y="380" as="targetPoint" />
          </mxGeometry>
        </mxCell>
        <mxCell id="qQBRJ47vKQDhWzbW-TcR-394" style="edgeStyle=orthogonalEdgeStyle;rounded=0;orthogonalLoop=1;jettySize=auto;html=1;exitX=0;exitY=0.5;exitDx=0;exitDy=0;fontFamily=Helvetica;fontSize=12;fontColor=default;startSize=26;" edge="1" parent="WIyWlLk6GJQsqaUBKTNV-1" source="qQBRJ47vKQDhWzbW-TcR-257">
          <mxGeometry relative="1" as="geometry">
            <mxPoint x="1280" y="860.6250000000002" as="targetPoint" />
          </mxGeometry>
        </mxCell>
        <mxCell id="qQBRJ47vKQDhWzbW-TcR-395" style="edgeStyle=orthogonalEdgeStyle;rounded=0;orthogonalLoop=1;jettySize=auto;html=1;exitX=1;exitY=0.5;exitDx=0;exitDy=0;fontFamily=Helvetica;fontSize=12;fontColor=default;startSize=26;" edge="1" parent="WIyWlLk6GJQsqaUBKTNV-1" source="qQBRJ47vKQDhWzbW-TcR-191">
          <mxGeometry relative="1" as="geometry">
            <mxPoint x="1280" y="860.0000000000002" as="targetPoint" />
          </mxGeometry>
        </mxCell>
        <mxCell id="qQBRJ47vKQDhWzbW-TcR-396" style="edgeStyle=orthogonalEdgeStyle;rounded=0;orthogonalLoop=1;jettySize=auto;html=1;exitX=1;exitY=0.5;exitDx=0;exitDy=0;fontFamily=Helvetica;fontSize=12;fontColor=default;startSize=26;" edge="1" parent="WIyWlLk6GJQsqaUBKTNV-1" source="qQBRJ47vKQDhWzbW-TcR-195">
          <mxGeometry relative="1" as="geometry">
            <mxPoint x="1280" y="870.0000000000002" as="targetPoint" />
          </mxGeometry>
        </mxCell>
        <mxCell id="qQBRJ47vKQDhWzbW-TcR-397" style="edgeStyle=orthogonalEdgeStyle;rounded=0;orthogonalLoop=1;jettySize=auto;html=1;exitX=1;exitY=0.5;exitDx=0;exitDy=0;entryX=0.5;entryY=0;entryDx=0;entryDy=0;fontFamily=Helvetica;fontSize=12;fontColor=default;startSize=26;" edge="1" parent="WIyWlLk6GJQsqaUBKTNV-1" source="qQBRJ47vKQDhWzbW-TcR-183" target="zkfFHV4jXpPFQw0GAbJ--0">
          <mxGeometry relative="1" as="geometry" />
        </mxCell>
      </root>
    </mxGraphModel>
  </diagram>
</mxfile>
